<?xml version="1.0" standalone="no"?>
<!DOCTYPE svg PUBLIC "-//W3C//DTD SVG 1.1//EN" "http://www.w3.org/Graphics/SVG/1.1/DTD/svg11.dtd" >
<svg xmlns="http://www.w3.org/2000/svg" xmlns:xlink="http://www.w3.org/1999/xlink" version="1.1">
<metadata></metadata>
<defs>
<font id="airstreamregular" horiz-adv-x="1024" >
<font-face units-per-em="2048" ascent="1638" descent="-410" />
<missing-glyph horiz-adv-x="563" />
<glyph horiz-adv-x="0" />
<glyph horiz-adv-x="682" />
<glyph unicode=" "  horiz-adv-x="563" />
<glyph unicode="&#x09;" horiz-adv-x="563" />
<glyph unicode="&#xa0;" horiz-adv-x="563" />
<glyph unicode="!" horiz-adv-x="413" d="M309 205l-65 -201h-213l63 201h215v0zM637 1214l-277 -847h-213l277 847h213v0z" />
<glyph unicode="&#x22;" horiz-adv-x="286" d="M350 1264l-127 -236h-194l129 236h192v0zM596 1264l-127 -236h-195l129 236h193v0z" />
<glyph unicode="#" />
<glyph unicode="$" horiz-adv-x="837" d="M958 1053q0 -12 -3 -23.5t-5 -23.5q-8 -33 -24.5 -64t-34.5 -57q-35 -51 -71 -100.5t-70 -98.5l-166 117q18 25 35.5 50.5t35.5 49.5q16 25 34 50.5t36 50.5q2 2 3 4t3 4q2 4 5 8t5 8q2 2 4.5 6t2.5 6q-18 -4 -38 -10l-40 -12q-35 -14 -70 -30.5t-63 -35.5l-19.5 -13 t-30.5 -21q-12 -10 -24 -22.5t-21 -25.5q-4 -8 -6 -15t-2 -13q2 -6 4 -12.5t6 -10.5q27 -27 52.5 -54.5t50.5 -55.5q25 -27 50.5 -54.5t51.5 -56.5q18 -18 26.5 -42t12.5 -48v-11v-10q0 -25 -5 -48t-15 -46q-29 -68 -88.5 -108.5t-130.5 -40.5h-16.5h-16.5l-78 -240h-143 l77 240h-135h-135l66 202h191h190q14 0 22 9.5t12 21.5q-23 27 -46 52.5t-48 50.5q-23 25 -46.5 50t-47.5 52q-33 35 -48.5 78t-13.5 88q2 113 86 189.5t183 125.5q20 10 40.5 19.5t41.5 17.5l41 125h143l-29 -80q23 2 43.5 2t38.5 -4q66 -12 103 -60t34 -112v-9v-9v0z" />
<glyph unicode="%" />
<glyph unicode="&#x26;" horiz-adv-x="1200" d="M1243 467l-65 -203h-134q-6 -102 -91 -181t-187 -79h-285.5h-285.5q-98 0 -145.5 57.5t-47.5 133.5q0 8 1 17t3 19q8 51 36 99.5t77 81.5q20 14 40.5 28.5t41.5 28.5q20 12 40.5 26.5t41.5 28.5q-2 2 -3 4t-4 7q-27 43 -48 94t-21 106q0 16 3 31.5t7 32.5 q35 104 153.5 190t256.5 117q29 8 57.5 11t56.5 3q61 0 116.5 -18.5t96.5 -59.5q23 -20 37.5 -47.5t18.5 -60.5q2 -8 2 -15.5v-15.5q0 -82 -57.5 -153.5t-127.5 -126.5q-29 -23 -55.5 -42.5t-48.5 -35.5l-117 166q12 8 40 28.5t59 44.5q8 8 16 15.5t18 13.5q27 25 47.5 47.5 t22.5 38.5q-12 10 -29.5 15.5t-40.5 3.5q-27 0 -56.5 -6.5t-59.5 -16.5q-53 -20 -103.5 -51t-81.5 -64q-10 -12 -17 -23.5t-11 -21.5v0v0v-2v0q0 -12 20.5 -52t44.5 -83q4 -4 6 -8l4 -8q23 -39 43.5 -73t28.5 -46l-326 -219l-3 -3l-3 -3q-6 -4 -12 -12.5t-8 -16.5h140.5 h139.5h140.5h140.5q6 0 13 2t16 6q14 8 27.5 20.5t17.5 26.5h-183l66 203h520v0z" />
<glyph unicode="'" horiz-adv-x="77" d="M340 1264l-127 -236h-195l129 236h193v0z" />
<glyph unicode="(" />
<glyph unicode=")" />
<glyph unicode="*" />
<glyph unicode="+" />
<glyph unicode="," horiz-adv-x="307" d="M264 47l-160 -186l-90 78l80 92v1v1l-1 1l-1 1q-20 18 -30.5 42.5t-10.5 51.5q0 23 6 42t21 36q18 20 42.5 30.5t51.5 10.5h9t12 -2q14 -2 29.5 -9.5t27.5 -17.5q23 -18 33 -42.5t10 -51.5v-9t-2 -12q-2 -14 -9.5 -29.5t-17.5 -27.5v0z" />
<glyph unicode="-" horiz-adv-x="454" d="M545 713l-68 -203h-450l65 203h453v0z" />
<glyph unicode="." horiz-adv-x="268" d="M256 127q0 -51 -36 -87t-87 -36q-49 0 -85 36t-36 87t36 86t85 35q51 0 87 -35t36 -86v0z" />
<glyph unicode="/" />
<glyph unicode="0" horiz-adv-x="1005" d="M913 1040q41 -66 59.5 -139.5t18.5 -150.5q0 -16 -1 -35t-3 -35q-12 -139 -74.5 -271.5t-150.5 -224.5q-68 -70 -150 -114.5t-168 -59.5q-14 -2 -29.5 -3t-29.5 -1q-86 0 -165 41t-138 133q-41 66 -59.5 139.5t-18.5 149.5q0 18 1 35.5t3 36.5q14 139 76.5 271t151.5 224 q80 84 175 131t195 47q96 0 176 -46t131 -128v0zM774 631q6 25 9 53.5t3 60.5v19.5t-2 19.5q-6 86 -47 157t-131 71q-111 0 -197.5 -87t-138.5 -194q-16 -37 -29.5 -72.5t-19.5 -68.5q-4 -25 -7 -53.5t-3 -59.5v-17t2 -18q4 -88 44 -160.5t134 -72.5q111 0 198 87t136 193 q18 37 30.5 73t18.5 69v0z" />
<glyph unicode="1" horiz-adv-x="491" d="M606 1214l-393 -1210h-213l393 1210h213v0z" />
<glyph unicode="2" horiz-adv-x="1087" d="M1057 731q-2 -8 -5 -15t-5 -14q-29 -82 -82.5 -159.5t-130.5 -143.5q-57 -51 -119 -98t-125 -92h430l-66 -205h-725q-31 0 -60.5 -12t-51.5 -31l-117 164q47 35 103.5 58.5t113.5 25.5q129 76 250 161t233 183q10 8 20.5 18.5l20.5 20.5q43 47 81 107.5t50 123.5 q2 10 3.5 21.5t1.5 21.5q0 12 -1.5 23.5t-5.5 21.5q-12 53 -54 74t-91 25q-8 2 -17.5 2h-17.5q-37 0 -83 -15.5t-95 -44.5q-55 -31 -108.5 -69.5t-102.5 -79.5q-12 -10 -24.5 -21.5t-24.5 -21.5l-137 149q16 16 34.5 32.5t38.5 33.5q100 82 224.5 153.5t253.5 85.5 q12 0 24 1.5t25 1.5q55 0 109.5 -14.5t105.5 -49.5q78 -51 112.5 -128t34.5 -161q0 -16 -1 -32.5t-5 -32.5q-2 -18 -6 -34.5t-8 -33.5v0z" />
<glyph unicode="3" horiz-adv-x="1071" d="M1051 860q-20 -63 -76.5 -117.5t-134.5 -95.5q63 -51 96 -111.5t37 -123.5q2 -6 2 -12.5v-12.5q0 -78 -41 -151.5t-119 -129.5q-82 -57 -172 -78.5t-184 -21.5q-61 0 -123 7t-121 16q-59 10 -116.5 24.5t-102.5 32.5l74 188q49 -18 105 -31.5t114 -21.5q49 -6 95 -9 t89 -3q25 0 58.5 5t68.5 15q63 18 117.5 57.5t54.5 100.5t-53 99t-119 59q-37 10 -70.5 15t-58.5 5v203h11h12q66 2 130 17.5t115 39.5q10 4 20.5 9.5t20.5 11.5q31 16 55.5 40.5t24.5 57.5q0 27 -28.5 40t-63.5 20q-27 6 -50.5 7t-33.5 1q-27 0 -53.5 -1t-50.5 -3 q-53 -6 -105.5 -13.5t-103.5 -15.5l-33 201q12 2 23.5 4t25.5 4q57 10 126 18t138 11h11.5h11.5q98 0 187 -25t147 -92q29 -33 43 -74t14 -82q-2 -20 -5 -41.5t-9 -42.5v0z" />
<glyph unicode="4" horiz-adv-x="1007" d="M1120 1214l-239 -741h110l-67 -203h-109l-86 -266h-217l90 266h-606l82 250l782 694h260v0zM803 895l-473 -422h338l135 422v0z" />
<glyph unicode="5" horiz-adv-x="991" d="M942 1214l-65 -202h-357l-88 -273q39 2 81 1t85 -5q70 -6 134.5 -25.5t115.5 -56.5q53 -39 78.5 -88t25.5 -104q0 -16 -2 -33.5t-6 -34.5q-6 -18 -12 -35.5t-14 -33.5q-94 -188 -272.5 -253t-373.5 -67h-7h-5q-66 0 -131.5 5t-126.5 14l27 200q53 -6 113.5 -11t123.5 -5 h19.5h19.5q131 4 251 47t179 160q6 10 8 20t2 19q0 31 -29.5 46t-64.5 21q-8 2 -16 3t-17 3q-33 6 -64.5 8.5t-64.5 2.5q-29 0 -58.5 -2.5t-59.5 -6.5q-57 -6 -116.5 -18t-121.5 -27l242 731h567v0z" />
<glyph unicode="6" horiz-adv-x="897" d="M821 444q0 -176 -143 -304t-316 -136h-10h-8q-10 0 -20.5 1t-20.5 3q-12 0 -22.5 2t-20.5 4q-123 29 -188.5 119t-65.5 203q0 18 2 37.5t6 40.5q16 80 47 157.5t70 147.5q74 133 168 259t199 236h272l8 -8q-25 -23 -50.5 -47t-51.5 -51q-39 -39 -77 -82t-75 -88 q-33 -43 -66.5 -87t-64.5 -91q10 2 20.5 4t22.5 2q10 2 20.5 2h20.5q139 0 241.5 -89t102.5 -235v0zM618 444q0 61 -43 91t-98 30q-14 0 -29.5 -2t-29.5 -6q-80 -20 -145.5 -83.5t-65.5 -145.5q0 -45 26.5 -75t71.5 -40q10 -2 21.5 -3t23.5 -1q10 0 21.5 1t21.5 3 q84 16 154.5 81.5t70.5 149.5v0z" />
<glyph unicode="7" horiz-adv-x="751" d="M860 1214q-14 -25 -29.5 -51t-31.5 -51q-98 -166 -194.5 -335t-180.5 -345q-51 -109 -92 -216t-70 -212h-209q55 246 169 477.5t237 448.5q12 20 23.5 40.5t23.5 41.5h-498v202h852v0z" />
<glyph unicode="8" horiz-adv-x="1157" d="M1083 934q0 -80 -42 -146.5t-103 -113.5q57 -43 93 -102.5t36 -135.5q0 -18 -3 -36.5t-7 -39.5q-43 -154 -200 -245.5t-335 -106.5q-16 -2 -31.5 -2h-29.5q-106 0 -203.5 32t-163.5 99q-41 41 -63.5 93.5t-22.5 109.5q0 18 3 36.5t7 37.5q27 92 108 170t181 123 q-20 31 -31.5 66.5t-11.5 74.5q0 16 3 33.5t7 36.5q31 113 131.5 185.5t215.5 98.5q29 6 57.5 9t56.5 3q12 0 24.5 -1t24.5 -1q113 -12 206 -81.5t93 -196.5v0zM864 436q0 47 -43 75t-96 40q-31 8 -60.5 11t-50.5 3q-33 0 -76.5 -6t-88.5 -20q-78 -23 -147 -67t-87 -112 q-2 -6 -3 -12t-1 -12q0 -45 43 -72.5t96 -40.5q31 -8 60.5 -11t50.5 -3q33 0 80 8t98 23q84 27 154.5 76t70.5 120v0zM879 918q2 4 2 9v9q0 29 -27 45t-59 25q-16 2 -31.5 4t-28.5 2q-23 0 -49.5 -4t-54.5 -13q-53 -16 -101.5 -50t-60.5 -83q-2 -4 -2 -8v-8 q0 -29 27.5 -46.5t60.5 -25.5q16 -2 31.5 -4t27.5 -2q23 0 49.5 4t55.5 14q53 16 100 49t60 83v0z" />
<glyph unicode="9" horiz-adv-x="819" d="M817 821q-16 -84 -48 -163.5t-73 -155.5q-74 -133 -168 -259t-198 -239h-285q109 106 207 219t180 238q-20 -4 -39.5 -6t-40.5 -2q-135 0 -240.5 86t-105.5 237q0 176 142.5 304t312.5 137h10h8q23 0 45.5 -3.5t42.5 -7.5q121 -27 188.5 -116t67.5 -203q0 -14 -1 -31.5 t-5 -34.5v0zM621 893q0 45 -27 75.5t-72 39.5q-10 4 -21.5 4h-23.5q-10 0 -21.5 -1t-21.5 -3q-84 -16 -154.5 -82t-70.5 -150q0 -61 43 -91t98 -30q14 0 29.5 2t30.5 7q80 20 145.5 83.5t65.5 145.5v0z" />
<glyph unicode=":" horiz-adv-x="313" d="M256 127q0 -51 -36 -87t-87 -36q-49 0 -85 36t-36 87t36 86t85 35q51 0 87 -35t36 -86v0zM338 455q0 -51 -36 -87t-87 -36q-49 0 -85 35.5t-36 87.5q0 51 36 85.5t85 34.5q51 0 87 -34.5t36 -85.5v0z" />
<glyph unicode=";" horiz-adv-x="352" d="M264 47l-160 -186l-90 78l80 92v1v1l-1 1l-1 1q-20 18 -30.5 42.5t-10.5 51.5q0 23 6 42t21 36q18 20 42.5 30.5t51.5 10.5h9t12 -2q14 -2 29.5 -9.5t27.5 -17.5q23 -18 33 -42.5t10 -51.5v-9t-2 -12q-2 -14 -9.5 -29.5t-17.5 -27.5v0zM338 455q0 -51 -36 -87t-87 -36 q-49 0 -85 35.5t-36 87.5q0 51 36 85.5t85 34.5q51 0 87 -34.5t36 -85.5v0z" />
<glyph unicode="&#x3c;" />
<glyph unicode="=" />
<glyph unicode="&#x3e;" />
<glyph unicode="?" horiz-adv-x="710" d="M352 209l-67 -205h-213l65 205h215v0zM821 1018q0 -100 -56 -171t-124 -134q-6 -4 -12 -10.5t-13 -10.5l-5 -5l-5 -5q-10 -8 -19 -17.5t-20 -17.5q-10 -10 -20 -19.5t-21 -17.5q-51 -49 -91 -94t-50 -76l-27 -80h-204q4 12 7 25.5t7 28.5q6 27 13 52.5t12 37.5 q10 31 29.5 63.5t45.5 65.5q31 37 68 73.5t74 71.5q14 14 29.5 27.5t29.5 28.5q47 43 85 78.5t44 50.5q8 14 12 25t6 22q-6 2 -15 2h-23h-135.5h-135.5q-41 0 -65.5 -23.5t-24.5 -56.5q0 -4 1 -9t1 -10q4 -14 13.5 -27.5t23.5 -25.5l-129 -158q-53 45 -83 105.5t-30 124.5 q0 12 1 23.5t3 23.5t5.5 23.5t7.5 23.5q33 88 108.5 138t167.5 50h135.5h135.5q94 0 168.5 -47t74.5 -149v0z" />
<glyph unicode="@" horiz-adv-x="1640" d="M1626 379l-47 -160l-336 -65q-8 -2 -17 -3t-20 -1q-27 0 -51.5 11t-40.5 34l-22 -70l-109 -23q-8 -2 -14 -2h-13q-45 0 -72.5 29t-25.5 74q0 10 2 21.5t4 23.5q4 14 9.5 29.5t11.5 31.5q2 8 4 14.5t4 14.5q8 23 14 45.5t8 42.5q-43 -27 -82.5 -74t-68.5 -98 q-16 -27 -28.5 -53.5t-20.5 -48.5l-35 -109l-160 -29l240 781l-158 -56l-276 -968l-146 16l256 899l-418 -137l-18 145l485 160l39 139l146 -16l-19 -70l160 56l68 223l159 28l-59 -194l164 57l20 -145l-235 -82l-99 -315q23 16 48.5 29.5t50.5 19.5q10 2 18 3t17 1h6h6 q2 0 5 -1t5 -1q43 -6 62.5 -40t19.5 -79q0 -23 -6 -51.5t-17 -61.5q-4 -12 -7 -23.5t-7 -23.5q-2 -12 -5 -23.5t-7 -23.5l76 16q0 14 2 28.5t6 29.5q6 23 12 44t14 42q31 82 79 140t102 93q20 12 39.5 22.5t37.5 16.5q20 8 40 11.5t40 3.5q49 0 84 -26t35 -79 q0 -12 -3 -26.5t-7 -30.5q-14 -39 -51 -91.5t-107 -117.5l209 43v0zM1427 555q-49 -12 -88 -53t-61 -88q-2 -6 -5 -12.5t-5 -12.5q72 57 108.5 98t50.5 68v0z" />
<glyph unicode="A" horiz-adv-x="1165" d="M1235 1004q6 -25 9 -53.5t3 -59.5q0 -78 -20.5 -180.5t-61.5 -231.5l-155 -473h-213l96 293h-459q-2 -37 1 -74t7 -75q4 -29 11.5 -60t13.5 -59q10 -35 20.5 -70t20.5 -70q2 -10 5 -19t5 -17l-194 -60q-23 78 -44.5 159t-35.5 163q-4 23 -7.5 45t-5.5 47q-2 23 -3 45 t-1 45h-233l65 205h199q39 143 106.5 265t149.5 214q63 70 132 120t140 79q41 16 82 25.5t80 9.5q115 0 187.5 -49.5t99.5 -163.5v0zM1040 956q-8 31 -31.5 44.5t-60.5 13.5q-41 0 -89 -20.5t-97 -57.5q-25 -18 -48.5 -41t-47.5 -49q-70 -76 -120 -162t-79 -180h491l13 37 q41 121 58.5 208t17.5 148q0 16 -1.5 31.5t-5.5 27.5v0z" />
<glyph unicode="B" horiz-adv-x="880" d="M1026 1055q2 -10 2 -21.5v-21.5q0 -109 -63.5 -214.5t-139.5 -197.5q-29 -37 -58.5 -70.5t-53.5 -64.5q23 -47 43 -96.5t41 -98.5q10 -20 14 -44.5t4 -49.5q0 -66 -39 -118t-117 -52h-661l65 203h539q-31 72 -61.5 144.5t-61.5 144.5q29 35 57.5 69.5t57.5 71.5 q27 35 55.5 69.5t57.5 69.5q41 49 68.5 96.5t39.5 86.5q6 16 9 29.5t3 25.5q0 16 -13 26.5t-42 12.5q-33 2 -68.5 -14.5t-72.5 -49.5q-16 -12 -30.5 -26.5t-29.5 -30.5q-59 -63 -110 -154.5t-86 -197.5q-23 -70 -38 -147t-20 -154h-202q4 94 21.5 185t45.5 179 q41 127 102.5 235.5t135.5 190.5q68 76 159 131t191 55q23 0 47.5 -4t48.5 -12q66 -20 109 -67.5t51 -118.5v0z" />
<glyph unicode="C" horiz-adv-x="931" d="M1047 1214q45 -33 63 -73.5t18 -87.5q0 -14 -2 -30.5t-6 -31.5q-10 -47 -32.5 -93t-47.5 -85q-31 -47 -71.5 -97t-87.5 -100q-68 -74 -148 -144.5t-162 -133.5l-5 -5t-7 -5l-123 159q68 51 132.5 108.5t121.5 115.5q55 55 100.5 108t77.5 103q4 4 12.5 17t16.5 32l4 8 l4 8q10 18 16.5 35.5t6.5 26.5v1v1l-2 2v0q-12 10 -25.5 13t-30.5 3q-20 0 -41.5 -5t-42.5 -13q-23 -10 -44 -20.5t-42 -22.5q-23 -14 -41 -26.5t-30 -20.5q-29 -20 -60.5 -46t-62.5 -57q-88 -82 -166 -186.5t-113 -214.5q-10 -31 -15 -61.5t-5 -61.5q0 -53 21.5 -89 t78.5 -36h131h150h149.5h130.5l-65 -203h-113.5h-132.5h-135.5h-114.5q-143 0 -224 95.5t-81 232.5q0 12 1 24.5t1 24.5q18 188 144 367.5t276 304.5q23 18 44 35.5t44 33.5q6 4 11 8.5t12 6.5q57 39 125.5 73.5t140.5 47.5q18 4 38.5 6t39.5 2q45 0 87 -12.5t81 -41.5v0z " />
<glyph unicode="D" horiz-adv-x="1171" d="M1219 1112q35 -43 50 -92t15 -105q0 -96 -49 -202.5t-139 -214.5q-53 -66 -121 -129.5t-148 -124.5q-74 -55 -143.5 -96.5t-138.5 -69.5q-14 -6 -27.5 -11.5t-28.5 -9.5q-45 -16 -91 -25t-91 -16q-68 -8 -136.5 -9t-137.5 -1h-16.5h-16.5l258 791h213l-188 -580 q119 16 222 65.5t197 120.5q29 23 77 64t100 92q41 41 80.5 87t70.5 93q27 43 42 84t15 80q0 27 -8 50.5t-28 43.5v2q-20 23 -59.5 33t-92.5 10q-33 0 -67.5 -4t-73.5 -10q-123 -20 -264.5 -68.5t-286.5 -115.5q-29 -12 -56.5 -24.5t-54.5 -26.5l-88 184q35 16 71 32.5 t73 32.5q150 63 296 112.5t275 72.5q41 8 84 12t88 4h7h7q88 -2 171 -30.5t139 -100.5v0z" />
<glyph unicode="E" horiz-adv-x="1124" d="M1194 1106q6 -18 9 -35.5t3 -34.5q0 -90 -68.5 -169t-150.5 -142q-43 -33 -84 -61.5t-72 -51.5l-124 162q6 4 50 35t95 72q10 8 19.5 15t19.5 15q45 37 76.5 70t31.5 51q0 4 -1 7t-5 5q-16 10 -35.5 14.5t-42.5 4.5q-16 0 -32.5 -2t-34.5 -6q-31 -6 -61.5 -16.5 t-55.5 -20.5q-10 -4 -20.5 -9t-18.5 -10q-12 -6 -38.5 -23.5t-55.5 -37.5q-20 -16 -39.5 -33.5t-34.5 -36.5q-12 -16 -20 -32.5t-8 -30.5q0 -6 1 -11.5t3 -9.5l-2 4l151 -266q-35 -27 -70.5 -52.5t-70.5 -51.5q-70 -51 -139.5 -103.5t-139.5 -105.5h854l-65 -203h-394.5 h-396.5q-109 0 -168 53.5t-59 124.5q0 14 3 28.5t7 29.5q12 35 37 68.5t64 62.5q35 25 68.5 50.5t68.5 51.5q35 27 68.5 52.5t68.5 50.5q-2 6 -6 11t-6 9t-5 8l-6 8q-27 43 -48 88.5t-23 98.5q0 150 144.5 271.5t318.5 166.5q41 12 82 17.5t79 5.5q53 0 101.5 -11.5 t87.5 -36.5q33 -20 55.5 -46.5t34.5 -61.5v0z" />
<glyph unicode="F" horiz-adv-x="1038" d="M1266 1217l-66 -203h-188l-140 -430h193l-66 -205h-192l-133 -406l-238 -73l158 479h-166l66 205h165l140 430h-549q-23 0 -33 -7.5t-10 -17.5q0 -14 12 -34.5t31 -41.5q6 -6 11 -13t11 -13q20 -23 39 -41.5t25 -26.5l-156 -127q-12 14 -25.5 29.5t-25.5 32.5 q-47 55 -86 119.5t-39 136.5q0 90 73 148.5t265 58.5h924v0z" />
<glyph unicode="G" horiz-adv-x="1058" d="M1143 848q-39 -66 -100.5 -137.5t-141.5 -143.5q-23 -20 -46.5 -40.5t-47.5 -41.5l-129 156q10 8 19.5 16.5t19.5 16.5q86 74 150.5 145.5t101.5 132.5q2 4 7 14.5t11 22.5l3 6t1 4q6 14 11.5 26.5t5.5 18.5v2v1l-2 2v0q-8 8 -20.5 11t-29.5 3q-20 0 -44.5 -6t-51.5 -19 q-18 -6 -36.5 -15t-35.5 -19q-23 -12 -43 -24.5t-32 -21.5q-29 -16 -57.5 -36.5t-57.5 -42.5q-123 -98 -233.5 -231.5t-147.5 -276.5q-4 -14 -7 -35t-5 -41v-8v-8q0 -39 14 -73t53 -44q20 -4 40 -7t38 -3q106 0 199.5 59t173.5 129q2 4 5 7t7 5q8 23 17.5 46.5t17.5 45.5 l191 -71q-94 -248 -210 -489.5t-282 -452.5l-160 123q82 104 149.5 217.5t125.5 230.5q-55 -23 -112.5 -37t-119.5 -12q-33 0 -64.5 3t-66.5 13q-84 20 -139 82t-72 148q-2 12 -4 23t-2 22q-2 10 -2 21v24v20t2 23q16 184 142 359t276 302q47 41 93 76t89 61q4 2 8 5.5 t9 5.5q55 35 120.5 65.5t132.5 44.5q23 4 44.5 7.5t44.5 3.5q45 0 87 -12.5t78 -41.5q45 -33 63.5 -73.5t18.5 -85.5q0 -14 -2 -28.5t-4 -31.5q-8 -37 -24.5 -72.5t-36.5 -68.5v0z" />
<glyph unicode="H" horiz-adv-x="972" d="M1206 1315l-471 -1440h-213l166 504h-291l-123 -373h-213l123 373h-178l66 205h178l205 633h213l-205 -633h291l239 731h213v0z" />
<glyph unicode="I" horiz-adv-x="960" d="M1098 963q-53 -166 -106.5 -331t-106.5 -329q-39 -123 -154 -210t-244 -87h-485l66 203h105h106h104h104q8 0 16.5 1t16.5 3q55 12 105.5 56t66.5 96q27 82 53.5 164.5t53.5 164.5t53.5 165t52.5 165q2 4 3 9t1 7q-8 4 -15 4h-17q-16 0 -36 -5t-38 -11 q-23 -10 -44.5 -21.5t-39.5 -23.5q-18 -10 -32.5 -21.5t-27.5 -19.5q-16 -12 -37.5 -27.5t-41.5 -33.5q-49 -41 -91.5 -94.5t-42.5 -112.5q0 -14 3.5 -27.5t9.5 -28.5q12 -29 30.5 -55t38.5 -53q0 -2 2 -4t5 -4q6 -10 13 -19.5t13 -19.5l-172 -111q-10 16 -20.5 30.5 t-20.5 29.5q-20 29 -39.5 59.5t-36.5 65.5q-14 35 -21 69.5t-7 69.5q0 80 35.5 155.5t95.5 133.5q23 23 49.5 46t54.5 48q66 53 141.5 101t153.5 71q29 10 56.5 14t54.5 4q37 0 71.5 -9t67.5 -32q47 -31 67.5 -74.5t20.5 -91.5q0 -20 -4 -39.5t-10 -39.5v0z" />
<glyph unicode="J" horiz-adv-x="1015" d="M1059 963q-61 -188 -123 -377t-123 -377h193l-66 -203h-192q-6 -14 -11.5 -31.5t-9.5 -33.5q-2 -6 -4 -12.5t-4 -12.5q-31 -104 -72 -202.5t-135 -168.5q-29 -23 -57.5 -38t-57.5 -25q-55 -18 -111.5 -21.5t-121.5 -3.5h-4h-4q-51 0 -86 20.5t-52 57.5q-8 14 -11 29.5 t-3 32.5q0 47 23.5 93t52.5 85l16 20t15 19q18 23 40.5 47t49.5 49q53 53 114.5 102t124.5 90q39 25 77 44.5t75 33.5q35 104 68.5 210t68.5 212t68.5 212t68.5 210q2 4 3 9t1 7q-8 4 -15 4h-17q-16 0 -36 -4t-38 -12q-20 -8 -42 -20.5t-42 -24.5q-16 -10 -31.5 -21.5 t-27.5 -19.5q-18 -12 -39 -28.5t-43 -34.5q-49 -41 -91 -94.5t-42 -112.5q0 -12 3 -25.5t9 -28.5q14 -27 31.5 -53t35.5 -51q2 -4 5.5 -7t5.5 -5q6 -10 13 -19.5t13 -19.5l-170 -111q-8 12 -17 24.5t-18 24.5q-2 2 -4 5.5t-4 5.5q-20 29 -39.5 59.5t-36.5 65.5 q-14 35 -21 69.5t-7 69.5q0 80 35.5 155.5t95.5 133.5q23 23 49.5 46t54.5 48q66 53 141.5 101t153.5 71q29 10 56.5 14t54.5 4q37 0 71.5 -9t67.5 -32q47 -31 67.5 -73.5t20.5 -90.5q0 -10 -1 -20t-3 -20q0 -10 -3 -20.5t-7 -20.5v0zM504 -94q-70 -51 -136.5 -113.5 t-119.5 -132.5q74 0 138.5 43t86.5 115q4 12 8 23.5t8 21.5q2 10 6.5 21.5t8.5 23.5v-2z" />
<glyph unicode="K" horiz-adv-x="1083" d="M610 1217l-393 -1211h-213l393 1211h213v0zM1368 1217l-764 -766l352 -445h-260l-258 326v2v0h-1t-1 2q-2 2 -4 5t-6 7q-16 23 -31.5 48.5t-15.5 56.5q0 29 16.5 60.5t55.5 70.5l630 633h287v0z" />
<glyph unicode="L" horiz-adv-x="1001" d="M987 874l-192 -352l-179 96q25 45 49.5 89.5t47.5 89.5q25 43 48 87t48 89q10 16 15 27.5t3 15.5q0 4 -3 6t-9 2q-8 0 -18.5 -2t-26.5 -6q-12 -2 -26.5 -7t-26.5 -12q-55 -27 -105.5 -80t-76.5 -133l-187 -575h594l-65 -203h-658q-33 -29 -71.5 -55.5t-79.5 -50.5 l-66 196q51 33 90 68t51 72q25 78 50.5 153.5t50.5 153.5q25 76 49 152.5t49 152.5q41 125 123 208t170 126q23 10 45 17t43 13q23 6 44 8.5t42 2.5q98 0 160.5 -53.5t60.5 -143.5q0 -35 -10 -73t-33 -79v0z" />
<glyph unicode="M" horiz-adv-x="1579" d="M1612 1217q-8 -16 -15.5 -34t-17.5 -36q0 -2 -1 -3t-1 -3q-18 -39 -34.5 -75t-29.5 -58q-14 -31 -30.5 -65t-30.5 -71q-18 -35 -33.5 -72.5t-32.5 -74.5q-43 -104 -73.5 -205.5t-30.5 -179.5q0 -57 32 -94t113 -39h101l-66 -201h-35q-193 0 -271.5 92t-76.5 242 q0 35 4 70.5t13 72.5q-82 -113 -166 -231.5t-178 -245.5h-217l153 621q-100 -158 -207.5 -313.5t-226.5 -307.5h-256q47 61 96 126t99 134q49 70 99 141.5t99 143.5q90 133 175 265t159 249q23 35 45.5 70.5t50.5 81.5h223l-174 -699q14 20 29.5 42t30.5 42q16 20 31.5 42 t29.5 42q90 127 183.5 258t195.5 273h242v0z" />
<glyph unicode="N" horiz-adv-x="1300" d="M1530 1217q-23 -55 -50.5 -119t-56.5 -129q-6 -14 -12 -28.5t-12 -27.5q-33 -72 -63.5 -137t-57.5 -119q-72 -137 -154 -270t-174 -250q-6 -8 -12 -15t-12 -16q-35 -37 -79 -69.5t-95 -32.5q-8 0 -16.5 1t-18.5 3q-59 16 -82 64.5t-25 101.5q-2 10 -1 21.5t1 21.5 q8 96 19.5 204.5t25.5 223.5q-25 -45 -49 -90t-51 -88q-74 -125 -147.5 -241.5t-147.5 -219.5h-252q37 49 78 106.5t82 118.5q20 31 40.5 63t41.5 62q35 55 67.5 108.5t61.5 104.5q57 100 114.5 205t112.5 209q31 59 61.5 117.5t59.5 116.5h207q-4 -39 -10 -86.5t-13 -94.5 q0 -4 -1 -10t-1 -10q-8 -53 -14 -103.5t-12 -89.5q-6 -43 -11.5 -87t-11.5 -89q-10 -88 -20.5 -175t-18.5 -171q76 102 145.5 216t129.5 233q61 121 114.5 240.5t96.5 226.5h223v0z" />
<glyph unicode="O" horiz-adv-x="1263" d="M1489 879l-66 -203h-229q-10 -260 -213 -465t-465 -205q-25 0 -49.5 2t-48.5 6q-186 33 -299 176.5t-113 329.5q0 268 206 482.5t478 214.5q164 0 294 -91.5t183 -246.5h322v0zM991 676h-13h-13q-59 0 -112.5 8t-92.5 66q-16 25 -24.5 49t-8.5 47q0 33 10.5 65.5 t22.5 67.5l4 12t4 13q-20 4 -39.5 7t-38.5 3q-190 0 -335.5 -153.5t-145.5 -340.5q0 -133 84 -222t219 -89q182 0 324.5 143.5t154.5 323.5v0z" />
<glyph unicode="P" horiz-adv-x="1202" d="M1311 883q-4 -39 -13.5 -80t-19.5 -82q-49 -172 -163 -315.5t-304 -143.5h-65.5h-65.5h-65.5h-65.5l65 205h40h38h55.5h63.5q94 0 168 98.5t111 216.5q12 41 18 81t6 77q0 23 -2 43.5t-8 36.5q-2 4 -4 5t-6 1q-8 0 -21.5 -5t-28.5 -13l-9 -4.5l-9 -4.5q-16 -10 -28.5 -17 t-14.5 -9q-195 -160 -345.5 -365t-283.5 -418q-25 -37 -47 -72.5t-45 -72.5q-6 -10 -12 -19.5t-12 -19.5h-240q4 6 8 12.5t8 12.5l3 6t3 4q14 25 27.5 47.5t22.5 34.5q14 25 29.5 51.5t29.5 52.5q35 59 67.5 124t63.5 130q35 76 65.5 151t53.5 142l10 40t17 69q2 2 2 5v5 q10 45 18 83l8 38h-63.5h-63.5h-65.5h-63.5l66 203h123q109 0 187.5 -42t74.5 -198v-9v-10q-2 -12 -4 -26t-4 -31q23 27 50 56.5t56 60.5q78 78 172 143.5t195 65.5h11t9 -2q4 0 9 -1t12 -1q104 -18 141 -95t39 -165v-4.5v-4.5q0 -18 -1 -36.5t-3 -34.5v0z" />
<glyph unicode="Q" horiz-adv-x="1183" d="M1239 1040q4 -8 6 -18t4 -18q0 -10 1 -19.5t1 -19.5q0 -14 -1 -28.5t-5 -29.5q-14 -80 -62 -157.5t-102 -143.5q-18 -18 -33.5 -36.5t-31.5 -34.5h137l-68 -203h-282q-37 -33 -76 -63.5t-80 -59.5h541l-66 -203h-839q-49 0 -94.5 -25.5t-82.5 -64.5q-27 43 -40 80t-13 70 q0 70 53.5 106.5t129.5 36.5q59 29 116.5 59.5t112.5 63.5h-12.5h-12.5q-133 2 -251.5 47t-161.5 192q-8 25 -11.5 48.5t-3.5 46.5q2 199 196.5 357.5t428.5 217.5q57 16 112.5 23.5t108.5 7.5q133 0 237.5 -54.5t143.5 -177.5v0zM1047 979q-16 53 -67.5 72.5t-111.5 19.5 h-16t-16 -2q-37 -2 -73 -8t-67 -14q-12 -2 -23 -6.5t-22 -6.5q-35 -12 -74.5 -27.5t-82.5 -35.5q-88 -45 -165 -108.5t-104 -145.5q-4 -14 -7 -28.5t-1 -26.5q0 -63 51 -95t121 -32h169h169q20 18 63.5 60t90.5 93q18 20 36.5 42t34.5 42q41 51 69 100.5t28 85.5v11.5 t-2 9.5v0z" />
<glyph unicode="R" horiz-adv-x="1404" d="M1473 717q-82 -131 -213.5 -216t-276.5 -130q33 -33 60.5 -74t48.5 -88h231l-68 -203h-297q-2 6 -4 11.5t-4 11.5q-49 117 -117.5 199.5t-240.5 86.5l65 205q29 2 58.5 5t58.5 7q156 25 299.5 90.5t229.5 202.5q4 6 8 13.5t8 15.5q6 10 11 21.5t11 21.5q6 14 9.5 27.5 t3.5 25.5q-2 20 -14.5 34.5t-43.5 16.5q-51 4 -122.5 -18t-165.5 -78q-203 -123 -359.5 -314.5t-292.5 -395.5q-31 -47 -60.5 -94.5t-59.5 -94.5h-230q96 158 188.5 327t161.5 341q12 29 23.5 57.5t21.5 56.5q23 61 38.5 112.5t17.5 90.5q0 12 -5.5 17.5t-23.5 5.5h-213 l66 203h118q109 0 189 -41t69 -197q0 -25 -5 -50.5t-13 -56.5q29 27 63.5 58t75.5 61q72 53 155 103.5t169 81.5q45 14 90 23t88 9q53 0 102.5 -15t90.5 -52q45 -37 63 -84t18 -99q0 -12 -1 -23t-3 -22q-8 -53 -28.5 -103t-48.5 -93v0z" />
<glyph unicode="S" horiz-adv-x="1075" d="M1210 1163q16 -25 22.5 -52.5t6.5 -55.5q0 -8 -1 -18.5t-1 -18.5q-8 -51 -30.5 -100.5t-49.5 -88.5q-47 -66 -93 -130t-93 -130l-166 117q47 66 93 131.5t93 128.5q8 10 14.5 21.5t12.5 23.5q6 14 11 29.5t7 28.5q-20 2 -52 -5.5t-79 -25.5q-27 -10 -56.5 -21.5 t-60.5 -25.5q-23 -10 -44 -21.5t-42 -23.5q-12 -8 -28.5 -19.5t-32.5 -25.5q-29 -23 -52.5 -51.5t-29.5 -57.5q-2 -6 -2 -10v-8q0 -12 5 -24.5t16 -24.5q66 -72 132 -145t132 -144q20 -20 29.5 -47t13.5 -56v-9v-9q0 -31 -6.5 -59.5t-18.5 -55.5q-33 -78 -101.5 -126 t-156.5 -48h-600l66 203h267h267q31 0 54.5 24.5t25.5 55.5q-31 35 -62.5 69.5t-64.5 69.5t-64.5 69.5t-64.5 69.5q-39 41 -56.5 91.5t-17.5 101.5q4 133 105.5 228t222.5 155q41 20 80 36.5t76 30.5t82 25.5t90 15.5h13h13q53 0 99.5 -19.5t76.5 -68.5v0z" />
<glyph unicode="T" horiz-adv-x="931" d="M1124 1014l-309 -41l-301 -998l-195 58l275 911l-561 -76l-27 201l653 86l54 176l194 -59l-26 -86l217 28l26 -200v0z" />
<glyph unicode="U" horiz-adv-x="1026" d="M1194 1217q-20 -37 -39.5 -74t-40.5 -76q-6 -10 -12 -21.5t-10 -21.5q-16 -27 -30.5 -55.5t-25.5 -57.5q-31 -88 -59.5 -176t-56.5 -174q-8 -31 -17.5 -59.5t-19.5 -59.5q-18 -57 -37 -115.5t-37 -117.5h201l-60 -203h-170q-63 0 -112.5 41t-63.5 100 q-68 -66 -144.5 -103.5t-166.5 -37.5q-158 0 -220.5 83t-62.5 214q0 123 38 243t83 236q14 37 28.5 73t26.5 73q14 41 20.5 62.5t6.5 29.5q0 4 -1 7t-5 3q-20 8 -43 12.5t-45 8.5q-4 2 -7 2t-8 2q-14 2 -28.5 4t-28.5 6l41 197q14 -2 28.5 -5.5t28.5 -5.5q4 0 9.5 -1t9.5 -1 q27 -4 55.5 -10t54.5 -16q82 -29 113 -78t31 -109q0 -31 -6 -62.5t-17 -64.5l-16 -46t-17 -48q-6 -12 -11 -24.5t-9 -24.5q-8 -23 -18.5 -48.5t-20.5 -51.5q-10 -31 -21.5 -62t-21.5 -63q-20 -63 -33.5 -125t-13.5 -113q0 -41 17.5 -67.5t62.5 -26.5q143 0 259 193.5 t222 424.5q4 10 9 19.5t10 19.5q4 8 7 15.5t7 13.5q10 23 20.5 44.5t18.5 43.5q16 39 28.5 78t22.5 78q2 2 3 5t1 5q4 16 9 33.5t12 34.5h272v0z" />
<glyph unicode="V" horiz-adv-x="782" d="M1059 1217q-4 -6 -7 -12.5t-8 -14.5q-20 -35 -37.5 -66.5t-25.5 -44.5q-20 -33 -39.5 -65.5t-38.5 -65.5q-139 -229 -291.5 -458.5t-347.5 -450.5q-20 -23 -49 -34t-59 -15h-6.5h-8.5q-51 0 -90 27.5t-43 84.5q-4 94 1 196.5t16 207.5q10 113 26.5 224.5t34.5 213.5 q12 76 24.5 144.5t22.5 128.5h205q-4 -18 -7 -37t-7 -37q-37 -213 -71 -425t-42 -425q166 203 307 423t277 445q8 12 16 26.5t16 29.5h232v0z" />
<glyph unicode="W" horiz-adv-x="1345" d="M1589 1217q-66 -109 -136.5 -227t-145.5 -236q-121 -193 -252 -379.5t-262 -335.5q-20 -23 -49 -34t-60 -15h-6h-8q-51 0 -90 27.5t-43 84.5q-2 72 0 146t6 149q-66 -92 -137.5 -182t-147.5 -176q-20 -23 -49 -34t-59 -15h-6.5h-8.5q-49 0 -89 27.5t-42 84.5 q-4 94 0 196.5t14 207.5q12 115 27.5 227.5t34.5 214.5q12 76 24.5 143.5t22.5 125.5h209q-4 -18 -7 -36t-5 -36q-8 -39 -15.5 -79t-15.5 -79q-31 -174 -56.5 -346t-31.5 -348q43 51 84 103.5t80 107.5q0 -4 36.5 49t79.5 121q2 0 3 2l1 2q35 51 65 96t42 66q4 27 8 53.5 t8 50.5q14 76 26.5 144.5t23.5 128.5h202q-10 -57 -23.5 -131t-25.5 -158q-8 -49 -16 -103.5t-17 -107.5q-16 -115 -27.5 -225.5t-15.5 -198.5q166 203 307.5 423t276.5 445q8 12 16.5 26.5t16.5 29.5h233v0z" />
<glyph unicode="X" horiz-adv-x="1286" d="M1427 1024q-135 -35 -273 -115t-280 -200l306 -703h-222l-241 557q-119 -119 -234.5 -259t-230.5 -298h-252q88 127 182 248t189 231q66 76 131 145.5t129 131.5l-197 455h221l136 -314q74 59 146.5 109.5t145.5 89.5q74 41 147 70.5t146 48.5l51 -197v0z" />
<glyph unicode="Y" horiz-adv-x="929" d="M1161 1217q-57 -106 -110.5 -215t-104.5 -220q-4 -10 -9 -20t-11 -19l-4 -8l-4 -8q-10 -20 -19.5 -40.5t-17.5 -43.5q-20 -66 -70.5 -241t-118.5 -369q-14 -41 -28.5 -82t-30.5 -80q-45 -113 -92 -214t-97 -175q-10 -16 -22 -32.5t-25 -31.5l-151 131q31 37 63.5 97.5 t67.5 136.5q16 39 32.5 79t32.5 83q14 33 27.5 67.5t24.5 69.5q-51 -37 -108.5 -56.5t-123.5 -19.5q-145 0 -197.5 84t-52.5 203q0 33 3 67.5t10 67.5q8 55 20 108.5t25 102.5q12 39 22 74t19 61q4 8 12 37t18 66q2 6 4 13t5 15q10 39 17 73t7 50v5t-2 3q-8 4 -45 4t-96 -4 l-11 203q90 6 159 1t120 -46q41 -33 56.5 -78t15.5 -98q0 -23 -2 -46.5t-7 -45.5q-6 -33 -15 -67t-17 -64q-6 -20 -12.5 -40t-12.5 -38q-4 -12 -16.5 -55.5t-28.5 -100.5q-6 -23 -11 -47.5t-11 -48.5q-10 -45 -16.5 -88t-6.5 -78q0 -39 10.5 -64.5t36.5 -25.5 q125 0 231.5 149.5t194.5 350.5q10 23 17.5 49t15.5 57q6 23 11 46.5t11 47.5q4 6 6.5 14.5t4.5 16.5q20 70 42.5 138.5t47.5 138.5h317v0z" />
<glyph unicode="Z" horiz-adv-x="1222" d="M1270 829q-76 -121 -170 -227t-193 -209l-4 -4l-4 -4q-33 -35 -65.5 -70.5t-65.5 -70.5q6 -18 13 -37t16 -35q117 31 209 49.5t131 24.5l30 -201q-37 -6 -125 -21.5t-198 -37.5q0 -4 1 -9.5t1 -11.5v-9v-9q-2 -178 -143.5 -305t-311.5 -158q-25 -6 -49.5 -8t-48.5 -2h-9 h-12q-94 6 -176 59t-96 152v12v10q0 133 185.5 235.5t408.5 172.5q2 0 3 1t3 1q-8 20 -16.5 41.5t-16.5 42.5q-8 20 -16 41.5t-16 42.5q41 47 82.5 92t84.5 90l17.5 17.5t17.5 19.5q98 102 192.5 209.5t168.5 224.5q10 16 15 30.5t5 28.5q0 20 -13 38t-42 26q-20 6 -41 9 t-43 3q-57 0 -119.5 -17.5t-126.5 -43.5q-66 -27 -129 -62t-121 -71q-68 -43 -122 -82t-91 -68l-125 160q35 27 76 56.5t88 60.5q100 66 219 127t242 96q59 16 116.5 25.5t112.5 9.5q66 0 127.5 -14.5t116.5 -47.5q47 -29 67.5 -75t20.5 -99q0 -10 -1 -22.5t-3 -22.5 q-6 -43 -21.5 -83t-35.5 -71v0zM637 -66q-20 -4 -82.5 -21t-132.5 -44q-68 -25 -128.5 -54.5t-82.5 -60.5q-6 -6 -9 -13t-3 -15v-4.5t2 -4.5l1 -2t1 -4q6 -12 20.5 -19t30.5 -9q10 -2 20.5 -3.5t18.5 -1.5q23 0 47.5 3.5t48.5 11.5q90 25 165 88t83 156v-3z" />
<glyph unicode="[" />
<glyph unicode="\" />
<glyph unicode="]" />
<glyph unicode="^" />
<glyph unicode="_" />
<glyph unicode="`" horiz-adv-x="698" d="M596 1153l-51 -149l-449 151l51 150l449 -152v0z" />
<glyph unicode="a" horiz-adv-x="751" d="M797 207l-66 -203h-199q-33 0 -59.5 10.5t-48.5 26.5q-31 -18 -66.5 -30.5t-70.5 -16.5q-12 -2 -24.5 -3t-24.5 -1q-63 0 -120 28.5t-89 92.5q-12 27 -18.5 52t-6.5 52q0 53 20.5 103.5t53.5 93.5q102 137 254.5 193.5t316.5 60.5h13.5h15.5v-203q-66 0 -130.5 -8.5 t-123.5 -30.5q-53 -18 -100.5 -51t-81.5 -80q-2 -4 -6.5 -10.5t-8.5 -14.5q-4 -6 -7 -12l-7 -14q-2 -6 -4 -14.5t-2 -14.5q0 -8 6 -15.5t20 -7.5q80 0 119 53.5t62 116.5q4 14 8 26.5t8 25.5l193 -64l-45 -141h219v0z" />
<glyph unicode="b" horiz-adv-x="694" d="M834 590l-66 -205h-119q-2 -20 -6 -40.5t-10 -41.5q-37 -113 -143.5 -207t-233.5 -94q-20 0 -40.5 4t-43.5 10q-84 29 -125 96.5t-39 147.5q0 12 1 25.5t3 27.5t5 27.5t8 26.5l290 897h213l-311 -961q-2 -6 -3 -11t-3 -11q0 -6 -1 -12.5t-1 -12.5q0 -20 10 -34.5 t35 -14.5q51 0 98 39t72 86q6 8 10 17t6 18q4 10 5 19t1 17q0 16 -4 32t-10 30q-2 4 -3 7t-3 7q-8 18 -14 38t-6 44q0 12 2 24.5t6 26.5l16 56l193 -62l-5 -16h216v0z" />
<glyph unicode="c" horiz-adv-x="700" d="M737 207l-67 -203h-455q-57 0 -106.5 25.5t-75.5 76.5q-12 25 -17.5 50.5t-5.5 52.5q0 51 15.5 100t35.5 92q0 2 1 3.5t1 3.5q55 106 167 194t237 88h7h7q2 -2 6.5 -2h8.5q78 -8 127 -57t49 -125v-6v-6q0 -4 -1 -7.5t-1 -7.5l-11 -90h-204l10 98q-59 -4 -112.5 -47 t-86.5 -94q-6 -10 -11 -18.5t-9 -16.5q0 -2 -5 -13t-12 -28q-2 -2 -3 -5t-3 -5q-4 -14 -8 -27.5t-4 -19.5q0 -2 1 -4t3 -2h522v0z" />
<glyph unicode="d" horiz-adv-x="786" d="M936 1264l-311 -961q-2 -8 -5.5 -20.5t-3.5 -24.5q0 -8 2.5 -15t6.5 -16q6 -8 16 -12t21 -6q4 -2 8 -2h8h133l-66 -203h-67q-57 0 -110.5 21.5t-92.5 66.5q-45 -37 -96 -59.5t-103 -26.5q-8 -2 -15 -2h-15q-127 0 -185.5 74t-58.5 172q0 14 1 27.5t3 25.5q4 27 12.5 54.5 t18.5 52.5q45 100 140 177t226 77h125l195 600h213v0zM463 463h-60q-72 0 -128 -57.5t-70 -124.5q0 -4 -1 -8.5t-1 -8.5q-2 -27 5 -42t38 -15h7h7q51 6 96 46t64 87q2 4 3 8t3 8l37 107v0z" />
<glyph unicode="e" horiz-adv-x="700" d="M721 207l-68 -203h-446q-55 0 -103.5 23.5t-74.5 72.5q-12 23 -18.5 49.5t-6.5 53.5q0 6 1 13t1 15q4 41 17.5 83t27.5 77q43 98 105.5 162.5t130.5 97.5q29 16 56.5 25.5t53.5 13.5q12 2 24.5 3t27.5 1q84 0 149.5 -47t65.5 -131q0 -16 -3.5 -33.5t-11.5 -38.5 q-16 -51 -67.5 -111.5t-143.5 -125.5h283v0zM453 496q-74 -4 -129.5 -57.5t-81.5 -116.5q0 -2 -1 -3.5t-1 -3.5q94 55 144 101.5t69 79.5v0z" />
<glyph unicode="f" horiz-adv-x="772" d="M799 668l-66 -205h-119q53 -80 80 -175t25 -198v-24.5t-2 -24.5q-10 -184 -102.5 -353t-249.5 -253q-33 -18 -69 -29.5t-73 -15.5q-8 -2 -15 -2h-15q-49 0 -93.5 19.5t-79.5 64.5v-4q-20 35 -33.5 76.5t-13.5 95.5q0 39 8.5 84t22.5 96l209 643h-178l82 205h162l192 596 h215l-192 -596h305v0zM442 352q-8 12 -17 23.5t-19 19.5q-51 -160 -103.5 -318.5t-103.5 -318.5q-2 -4 -3 -7t-1 -7q-4 -8 -6.5 -17.5t-4.5 -17.5q-6 -18 -9 -36.5t-3 -34.5q0 -20 8 -33t29 -13q10 0 25.5 5.5t35.5 15.5q104 57 169 180t75 256q2 10 2 21.5v23.5 q0 72 -17.5 138.5t-56.5 119.5v0z" />
<glyph unicode="g" horiz-adv-x="727" d="M741 463q-43 0 -92 -2t-98 -8q-94 -12 -181 -50t-134 -118q-2 -4 -4.5 -7.5t-4.5 -7.5q-6 -10 -10 -20t-2 -19q0 -10 8 -17t29 -7q20 0 40.5 5t43.5 13q61 25 116.5 77t71.5 110q0 2 1 3t1 3l2 6l195 -57l-172 -531q-57 -170 -220 -295t-345 -125l-2 199q8 2 13 2t11 2 q113 8 214.5 93t135.5 190l43 133q-18 -8 -36.5 -13.5t-36.5 -9.5q-20 -4 -39 -6t-37 -2q-63 0 -121.5 28.5t-91.5 86.5q-14 27 -20.5 53.5t-6.5 52.5q0 41 13.5 82t33.5 78q84 143 226.5 200.5t298.5 71.5q39 4 78.5 5.5t78.5 1.5v-201v0z" />
<glyph unicode="h" horiz-adv-x="802" d="M831 207l-65 -203h-145q-76 0 -123 50t-47 118q0 8 1 15.5t1 15.5q2 6 4 13t4 15q6 20 14 42t14 44q4 8 7.5 16.5t5.5 14.5q10 29 17 55.5t11 51.5q-61 -25 -117.5 -82.5t-97.5 -122.5q-18 -27 -32.5 -54.5t-24.5 -52.5l-45 -139h-213l410 1260h213l-207 -639 q25 14 51.5 23t52.5 16q8 0 17.5 1t17.5 1q16 0 33.5 -3.5t32.5 -9.5q59 -20 85.5 -71.5t26.5 -110.5q0 -31 -7 -67.5t-24 -77.5q-4 -14 -9 -29.5t-9 -30.5q-4 -14 -9 -29.5t-9 -29.5h165v0z" />
<glyph unicode="i" horiz-adv-x="405" d="M426 207l-66 -203h-184q-76 0 -123 50t-47 118q0 8 1 15.5t1 15.5q2 6 4 13t4 15l140 437h215l-148 -461h203v0zM477 977q0 -57 -40 -99t-99 -42q-57 0 -98 42t-41 99t41 98t98 41q59 0 99 -41t40 -98v0z" />
<glyph unicode="j" horiz-adv-x="751" d="M807 668l-242 -742q-55 -170 -216 -294t-341 -128h-4h-4v199q8 2 15.5 2t15.5 2q111 12 209 96t133 187l98 307q-25 -10 -50.5 -19.5t-51.5 -17.5l-52 197q10 2 21.5 5t21.5 7q70 27 133.5 78t96.5 121h217v0zM881 977q0 -57 -40 -99t-100 -42q-57 0 -98 42t-41 99t41 98 t98 41q59 0 99.5 -41t40.5 -98v0z" />
<glyph unicode="k" horiz-adv-x="724" d="M770 549l-299 -221l51 -117q4 -2 11.5 -3t15.5 -1h151l-67 -203h-84h-5h-5q-59 2 -114.5 28.5t-82.5 88.5l-53 121l-78 -238h-213l408 1260h212l-243 -756l274 205l121 -164v0z" />
<glyph unicode="l" horiz-adv-x="423" d="M586 1264l-344 -1057h202l-65 -203h-182q-76 0 -123 50t-47 118q0 8 1 15.5t1 15.5q2 6 4 13t4 15l336 1033h213v0z" />
<glyph unicode="m" horiz-adv-x="1220" d="M1214 207l-65 -203h-139q-76 0 -123 49t-47 119q0 14 3 29.5t7 29.5q12 41 24.5 81t26.5 79q2 6 4 11.5t2 9.5q4 10 8.5 21t4.5 22q-18 -6 -40 -20.5t-44 -35.5q-57 -49 -108.5 -116.5t-80.5 -139.5q-12 -33 -22.5 -68.5t-20.5 -70.5h-215q8 25 15.5 50.5t15.5 51.5 q8 27 17 52.5t20 50.5q6 23 13 45t15 47q8 23 15.5 45.5t15.5 44.5q2 4 3 8t1 9q4 10 7 22t5 25q-16 -6 -38.5 -20.5t-44.5 -35.5q-57 -51 -109.5 -116.5t-77.5 -139.5l-45 -139h-211l213 664h215l-16 -45q25 14 52.5 23t55.5 16q8 0 18.5 1t18.5 1q47 0 86 -20.5t66 -70.5 v-1t2 -3q0 -2 1 -3l1 -1q53 43 110.5 72t114.5 29q16 0 33.5 -3.5t34.5 -9.5q61 -25 84.5 -73t23.5 -105q0 -39 -7 -76t-19 -71q-6 -14 -11.5 -29.5t-9.5 -30.5q-4 -16 -9 -30.5t-9 -30.5h159v0z" />
<glyph unicode="n" horiz-adv-x="827" d="M831 207l-67 -203h-141q-76 0 -123 49t-47 119q0 14 3 29.5t7 29.5t8 27.5t8 26.5q8 27 16.5 53.5t16.5 52.5q2 4 3 8t1 9q4 10 7 22t5 25q-16 -6 -38.5 -20.5t-45.5 -35.5q-57 -49 -107 -116.5t-79 -139.5l-45 -139h-213l215 664h213l-14 -43q23 12 46 21t48 13 q12 4 23.5 5.5t23.5 1.5q16 0 33.5 -3.5t32.5 -9.5q59 -20 85.5 -71.5t26.5 -110.5q0 -31 -7 -66.5t-21 -76.5q-6 -14 -10.5 -29.5t-8.5 -30.5q-2 -6 -4 -11t-2 -9q-4 -10 -6 -20.5t-6 -20.5h163v0z" />
<glyph unicode="o" horiz-adv-x="718" d="M819 508l-67 -209h-99q-27 -119 -126 -207t-226 -88h-11t-11 2q-6 0 -11.5 1t-11.5 1q-113 16 -181.5 101.5t-68.5 197.5q0 145 106.5 259t256.5 114q90 0 160.5 -47t105.5 -125h184v0zM434 303q-53 10 -91 51t-44 99q-33 -20 -55.5 -54t-28.5 -71v-5.5v-5.5q-2 -2 -2 -5 v-5q2 -37 23.5 -65.5t64.5 -28.5q41 0 77 26.5t56 63.5v0z" />
<glyph unicode="p" horiz-adv-x="1026" d="M1047 207l-66 -203h-608v203h133q14 0 28.5 3t28.5 7q61 23 111.5 75t50.5 111q0 33 -20.5 46.5t-49.5 13.5q-41 0 -92 -32t-104 -87q-4 -6 -10.5 -13t-12.5 -14q-59 -70 -114.5 -160.5t-90.5 -195.5l-172 -534l-192 63l229 709q27 84 37 149.5t10 116.5q0 39 -4 70.5 t-10 56.5q-2 8 -3 16t-3 15q-2 10 -3 13t-3 5l198 43q4 -10 4 -13v-3q2 -10 4.5 -20.5t4.5 -22.5q6 -23 10 -50.5t6 -60.5q66 63 146.5 107.5t168.5 44.5q23 0 45.5 -3.5t45.5 -11.5q82 -27 130 -94.5t48 -153.5q0 -51 -17.5 -101t-46.5 -95h183v0z" />
<glyph unicode="q" horiz-adv-x="886" d="M911 211l-67 -203h-70q2 -12 3 -25.5t1 -27.5q0 -31 -4 -60.5t-10 -58.5q-4 -14 -8 -29.5t-8 -29.5q-10 -33 -26.5 -71t-37.5 -77q-51 -90 -127 -165.5t-170 -75.5q-14 0 -29.5 3t-31.5 7q-68 20 -98.5 75.5t-30.5 118.5q0 20 4 42t10 44l111 340q-16 -4 -36 -7t-40 -3 q-63 0 -118.5 24.5t-86.5 82.5q-14 25 -20.5 50t-6.5 52q0 43 13.5 85t31.5 81q61 127 186.5 192.5t262.5 86.5q49 6 97 8t93 -2l-14 -203q-80 6 -154.5 -5t-136.5 -36q-63 -27 -117.5 -81t-58.5 -128q4 -2 12.5 -2h16.5q72 0 118 50t74 112l13 35l192 -62l-45 -137h313v0z M575 -37q0 16 -1 26.5t-3 18.5h-39q-16 -49 -31.5 -97t-31.5 -97t-31.5 -97.5t-31.5 -99.5q-2 -4 -2.5 -8t-0.5 -6q0 -8 7.5 -2t17.5 18q2 0 3 2l1 2q8 8 13.5 15.5t7.5 9.5q43 55 75.5 123.5t42.5 140.5q2 12 3 25.5t1 27.5v-2z" />
<glyph unicode="r" horiz-adv-x="706" d="M705 463h-78q-12 -8 -37 -32.5t-51 -55.5q-8 -8 -16.5 -18.5t-16.5 -18.5q-27 -35 -45.5 -64.5t-18.5 -48.5q2 -8 7.5 -13t17.5 -5h229l-65 -203h-36h-46h-46.5h-35.5q-63 0 -117.5 28.5t-85.5 86.5q-6 12 -10 24.5t-6 26.5q-4 12 -5 24.5t-1 24.5q0 66 28.5 128.5 t67.5 115.5h-33q-6 0 -11 -1t-11 -3q-20 -6 -39 -23.5t-27 -36.5q-2 -2 -3 -5t-1 -5l-16 -47l-193 64l113 352l194 -64l-10 -26h404v-205v0z" />
<glyph unicode="s" horiz-adv-x="528" d="M514 313q0 -137 -84 -223t-223 -86h-207l66 203h141q53 0 78.5 25.5t25.5 80.5q0 29 -6 54.5t-16 46.5q-39 -53 -66.5 -91t-27.5 -40l-164 118l44 61q44 62 99 136q51 74 96 135.5t45 63.5l183 -90q-2 -2 -24.5 -35t-57.5 -80q47 -57 72.5 -130t25.5 -149v0z" />
<glyph unicode="t" horiz-adv-x="481" d="M496 666l-66 -203h-108l-84 -256h243l-65 -203h-230q-74 0 -120 49t-46 115q0 6 1.5 13t1.5 16q2 8 4 15t4 13l78 238h-115l67 203h113l78 239l192 -63l-57 -176h109v0z" />
<glyph unicode="u" horiz-adv-x="692" d="M713 207l-68 -203h-29.5h-31.5q-45 0 -87 16.5t-75 45.5q-41 -29 -89 -45.5t-97 -16.5q-10 0 -19.5 1t-19.5 3q-10 0 -19.5 3t-19.5 5q-74 25 -112 84.5t-36 128.5q0 10 1 20.5t3 20.5q0 10 3 20.5t6 20.5l114 357h213l-135 -420q-2 -6 -3 -12.5t-1 -10.5q0 -8 5 -13 t20 -5q6 0 12 1t12 3q35 8 65.5 35.5t41.5 58.5q0 2 1 3t1 3l116 357h211l-133 -420q-2 -6 -3 -12.5t-1 -10.5q0 -8 5 -13t20 -5h129v0z" />
<glyph unicode="v" horiz-adv-x="653" d="M780 565l-65 -203h-170q-14 -25 -30.5 -49t-35.5 -49q-61 -82 -132 -143.5t-152 -116.5h-56q-12 18 -24.5 35.5t-22.5 34.5q-39 63 -61.5 130.5t-22.5 157.5q0 55 8.5 112.5t24.5 115.5q6 20 12 39.5t13 38.5h217q-20 -45 -37 -97.5t-25 -105.5q-6 -27 -8 -52.5t-2 -52.5 q0 -20 2 -41.5t6 -42.5q39 35 72 74t59 82q-10 18 -16 39t-6 41q0 12 2 24.5t6 24.5q16 51 62 87t100 48q10 2 21 3t22 1h139q-10 -33 -21.5 -66.5t-21.5 -68.5h143v0z" />
<glyph unicode="w" horiz-adv-x="972" d="M1108 565l-68 -203h-172q-70 -117 -156.5 -200.5t-195.5 -157.5h-57q-4 4 -7 9t-8 10q-20 31 -40.5 61.5t-34.5 65.5q-39 -41 -82 -76t-90 -70h-60l-9 13.5l-9 13.5q-6 6 -11.5 13t-9.5 13q-51 68 -71.5 148t-20.5 162v25.5t2 25.5q4 63 18.5 126.5t36.5 123.5h211 q-8 -27 -17 -55.5t-15 -57.5q-14 -55 -23.5 -106.5t-9.5 -86.5q0 -14 1 -27t3 -26q0 -6 1 -13t3 -13q33 35 61.5 72.5t53.5 76.5q6 59 20.5 118.5t34.5 117.5h217q-16 -39 -29.5 -82t-23.5 -86q-8 -39 -12 -76t-4 -72q0 -20 3 -39.5t5 -36.5q37 35 69.5 74t59.5 82 q-6 10 -10.5 19.5t-6.5 19.5q-4 10 -5 20.5t-1 18.5q0 47 26.5 86t65.5 66q51 33 105.5 36.5t111.5 1.5h21.5h21.5q-10 -33 -21 -66.5t-22 -68.5h150v0z" />
<glyph unicode="x" horiz-adv-x="759" d="M838 668l-346 -404q2 -6 4 -11t4 -11t4 -11.5t4 -11.5q4 -8 9 -10t13 -2h226l-66 -203h-35.5h-44.5h-44h-36q-57 0 -105 23.5t-81 68.5l-78 -92h-266l260 301l-135 363h215q18 -47 35.5 -93.5t34.5 -93.5l159 187h269v0z" />
<glyph unicode="y" horiz-adv-x="665" d="M756 668q-8 -20 -18.5 -42t-20.5 -42q-20 -47 -48 -106.5t-61 -119.5q-8 -18 -18 -35.5t-21 -33.5q0 -55 -2 -111.5t-8 -114.5q-27 -223 -135.5 -418.5t-347.5 -256.5l-49 194q158 41 230.5 175t94.5 286q-31 -18 -62.5 -27.5t-66.5 -9.5q-100 0 -160.5 66.5t-60.5 156.5 q0 20 4 42t10 42q29 88 58.5 177.5t56.5 177.5h213q-33 -104 -66.5 -209t-68.5 -209q0 -2 -1 -4t-1 -4q0 -4 -1 -8.5t-1 -8.5q0 -8 4 -12t14 -4q25 0 51.5 20.5t55.5 55.5q31 41 60.5 93t55.5 107q25 49 47.5 95.5t38.5 85.5v0v2h224v0z" />
<glyph unicode="z" horiz-adv-x="585" d="M571 457q0 -61 -29.5 -116.5t-64.5 -107.5q-8 -12 -17 -24t-18 -25q76 -23 108 -68.5t32 -107.5q0 -43 -15.5 -95t-42.5 -110q-14 -31 -32.5 -61.5t-38.5 -60.5q-25 -37 -51.5 -75t-55.5 -73q-6 -8 -13 -17.5t-14 -17.5l-264 -2q25 31 52.5 64.5t56.5 70.5 q18 23 36.5 47.5t37.5 49.5q31 41 57.5 83t44.5 80q8 16 12 32t4 28q0 25 -19.5 39t-68.5 14h-190l106 158q27 41 54.5 82t56.5 82q14 20 27.5 39.5t27.5 40.5q0 2 3 7t7 11q0 2 2.5 5t2.5 5q2 6 4 11.5t2 9.5t-2 6t-7 2h-368l65 205h43h45h121h94q88 0 148.5 -61.5 t60.5 -149.5v0z" />
<glyph unicode="{" />
<glyph unicode="|" />
<glyph unicode="}" />
<glyph unicode="~" />
<glyph unicode="&#xa1;" horiz-adv-x="532" d="M31 -326l276 848h213l-276 -848h-213v0zM358 684l66 201h213l-64 -201h-215v0z" />
<glyph unicode="&#xa2;" horiz-adv-x="712" d="M885 915q-23 -45 -60 -95t-84 -101q-6 -8 -14 -17.5t-16 -17.5l-148 141q47 49 83 94.5t56 84.5q4 6 5.5 12t3.5 10q2 2 3 4t1 4q-6 2 -12.5 2h-12.5q-12 0 -25.5 -3t-25.5 -7q-20 -8 -39.5 -19.5t-36.5 -21.5q-10 -8 -18 -14t-17 -13q-23 -16 -47 -35.5t-51 -43.5 q-59 -57 -114.5 -129t-82.5 -148q-10 -27 -15 -53.5t-5 -50.5q0 -31 10 -51.5t43 -20.5h90h90h90.5h90.5l-66 -203h-45h-45h-47.5h-44.5l-72 -219h-141l72 221q-106 10 -167 88t-61 185v17t2 20q12 154 113.5 298t220.5 242q16 14 31.5 26.5t32.5 22.5q33 23 70.5 45.5 t76.5 38.5l39 117h141l-28 -86q33 0 63.5 -9t58.5 -26q47 -29 68 -69.5t21 -85.5q0 -33 -9.5 -67t-25.5 -67v0z" />
<glyph unicode="&#xa3;" horiz-adv-x="952" d="M997 999l-168 -112q-12 18 -30.5 25.5t-40.5 7.5q-10 0 -20.5 -2.5t-20.5 -4.5q-23 -6 -44.5 -14t-37.5 -18q-8 -4 -15.5 -9.5t-13.5 -9.5q-51 -39 -74.5 -81t-39.5 -93q-4 -10 -6.5 -18t-6.5 -19h164l-65 -205h-164l-47 -143q41 -2 79.5 -10t71.5 -23q23 -8 51.5 -13 t59.5 -5q12 0 25.5 1t27.5 1q51 6 101.5 20.5t86.5 32.5l88 -182q-57 -27 -125.5 -46.5t-138.5 -25.5q-16 -2 -32.5 -3t-32.5 -1q-51 0 -98.5 8.5t-88.5 24.5q-25 10 -54.5 14t-59.5 4h-21.5t-21.5 -2q-55 -4 -106.5 -18t-90.5 -33l-88 182q25 12 52.5 23.5t56.5 19.5 l18 4.5l18 4.5l56 165h-113l66 205h112q6 16 11.5 33.5t11.5 36.5q6 16 11 33.5t11 36.5q45 135 172 233t271 98q72 0 137 -29.5t106 -93.5v0z" />
<glyph unicode="&#xa4;" horiz-adv-x="1126" d="M1307 1055l-144 -146q-37 51 -95 76t-130 25h-8h-8q-129 -4 -249 -74t-204 -174h547l-137 -135h-494q-4 -10 -8 -21.5t-8 -21.5h467l-136 -135h-356q0 -106 66.5 -177t197.5 -71q45 0 93.5 9t95.5 28q39 16 78.5 38.5t78.5 51.5l123 -162q-80 -61 -183 -105.5t-210 -56.5 q-23 -4 -44.5 -4h-41.5q-113 0 -212 44t-171 146q-35 49 -53.5 103.5t-20.5 109.5q-2 12 -2 23.5v22.5h-133l43 135h107q4 10 7 21t5 22h-115l43 135h131q47 84 110.5 157.5t133.5 124.5q80 59 183.5 103.5t209.5 58.5q23 4 44.5 5t41.5 1q102 0 194.5 -36.5t162.5 -120.5v0 z" />
<glyph unicode="&#xa5;" horiz-adv-x="929" d="M1223 1214q-35 -43 -76 -94t-84 -104q-4 -4 -8 -10.5t-8 -10.5q-55 -68 -106.5 -129t-92.5 -104h98l-43 -135h-184l-11.5 -11.5t-11.5 -9.5l-11 -11l-11 -11h217l-45 -135h-307l-144 -445h-213l142 445h-326l43 135h248q-2 6 -3 11t-1 11q-2 4 -3 9.5t-3 11.5h-226 l45 135h166q-4 55 -4 112.5t2 114.5q2 47 6 96.5t8 96.5q0 8 1.5 16t1.5 16h204q0 -10 -1 -21t-3 -24q-4 -49 -8 -101t-6 -105q-2 -74 -1 -147t11 -136q84 70 162 150.5t149 164.5q47 57 92.5 112.5t86.5 106.5h258v0z" />
<glyph unicode="&#xa6;" />
<glyph unicode="&#xa7;" />
<glyph unicode="&#xa8;" horiz-adv-x="587" d="M276 1176l-116 -189l-133 84l116 186l133 -81v0zM561 1176l-115 -189l-135 84l115 186l135 -81v0z" />
<glyph unicode="&#xa9;" />
<glyph unicode="&#xaa;" horiz-adv-x="362" d="M541 881l-45 -136h-134q-20 0 -38.5 7.5t-32.5 17.5q-20 -12 -43 -20.5t-47 -12.5q-8 0 -17.5 -1t-19.5 -1q-43 0 -80 18.5t-59 63.5q-8 16 -11.5 33.5t-3.5 34.5q0 35 13.5 69.5t33.5 63.5q72 96 180.5 134t223.5 38v-137q-45 0 -88 -5.5t-82 -21.5q-37 -12 -69 -33.5 t-54 -52.5q-2 -2 -5 -7t-5 -9t-4 -9.5t-4 -9.5q-2 -6 -3.5 -11t-1.5 -9q0 -6 4.5 -10.5t12.5 -4.5q53 0 79.5 36t43.5 79q2 8 5 16.5t5 16.5l129 -41l-31 -96h148v0z" />
<glyph unicode="&#xab;" horiz-adv-x="716" d="M449 389l-103 -102l-326 323l326 326l103 -105l-222 -221l222 -221v0zM715 389l-103 -102l-325 323l325 326l103 -105l-221 -221l221 -221v0z" />
<glyph unicode="&#xac;" />
<glyph unicode="&#xad;" />
<glyph unicode="&#xae;" />
<glyph unicode="&#xaf;" horiz-adv-x="563" />
<glyph unicode="&#xb0;" />
<glyph unicode="&#xb1;" />
<glyph unicode="&#xb2;" />
<glyph unicode="&#xb3;" />
<glyph unicode="&#xb4;" horiz-adv-x="698" d="M623 1155l-449 -151l-51 149l448 152l52 -150v0z" />
<glyph unicode="&#xb5;" />
<glyph unicode="&#xb6;" />
<glyph unicode="&#xb7;" horiz-adv-x="563" />
<glyph unicode="&#xb8;" horiz-adv-x="587" d="M440 -293q-25 -51 -71.5 -82t-100.5 -31h-47h-65h-21.5h-19.5h-40.5h-29.5l61 150h136q35 2 48 13.5t11 25.5q0 4 -1 7t-1 7q-4 10 -12 20.5t-19 16.5q-27 16 -54.5 32.5t-53.5 33.5q29 51 59.5 100t61.5 100l133 -82l-39 -69q39 -29 60.5 -72t21.5 -90q0 -20 -4 -39.5 t-13 -38.5v-2z" />
<glyph unicode="&#xb9;" />
<glyph unicode="&#xba;" horiz-adv-x="305" d="M549 1098l-45 -140h-66q-20 -80 -85.5 -138t-149.5 -58h-15.5t-15.5 2q-76 10 -122 67.5t-46 131.5q0 96 71.5 172.5t172.5 76.5q59 0 106 -30.5t72 -83.5h123v0zM291 961q-35 8 -60.5 34.5t-29.5 65.5q-23 -14 -38.5 -37t-19.5 -47v-5v-5q0 -27 14.5 -46.5t43.5 -19.5 t52 17.5t38 42.5v0z" />
<glyph unicode="&#xbb;" horiz-adv-x="710" d="M18 389l222 221l-222 221l103 105l325 -326l-325 -323l-103 102v0zM285 389l221 221l-221 221l102 105l326 -326l-326 -323l-102 102v0z" />
<glyph unicode="&#xbc;" />
<glyph unicode="&#xbd;" />
<glyph unicode="&#xbe;" />
<glyph unicode="&#xbf;" horiz-adv-x="819" d="M23 -252q0 102 56 173t124 132q6 4 12 10.5t12 10.5q2 2 5.5 5t5.5 5q10 8 19 17.5t19 17.5q10 10 20.5 19t20.5 18q51 49 91.5 94t50.5 76l26 80h205q-4 -12 -7 -25.5t-7 -28.5q-6 -27 -13.5 -52.5t-11.5 -37.5q-10 -31 -29.5 -63.5t-46.5 -65.5q-31 -37 -67.5 -73.5 t-73.5 -69.5q-14 -14 -29.5 -27.5t-29.5 -28.5q-47 -43 -85 -78.5t-44 -50.5q-8 -14 -12.5 -25t-6.5 -22q6 -2 15.5 -2h23.5h135.5h135.5q41 0 65.5 23.5t24.5 56.5q0 4 -1 9t-1 10q-4 14 -13.5 27.5t-23.5 25.5l129 155q53 -45 82.5 -104t29.5 -123q0 -12 -1 -23.5 t-3 -23.5t-5 -23.5t-7 -23.5q-33 -88 -108.5 -138t-167.5 -50h-135.5h-135.5q-94 0 -168.5 47t-74.5 149v-2zM492 557l67 205h213l-65 -205h-215v0z" />
<glyph unicode="&#xc0;" horiz-adv-x="1165" d="M1235 1004q6 -25 9 -53.5t3 -59.5q0 -78 -20.5 -180.5t-61.5 -231.5l-155 -473h-213l96 293h-459q-2 -37 1 -74t7 -75q4 -29 11.5 -60t13.5 -59q10 -35 20.5 -70t20.5 -70q2 -10 5 -19t5 -17l-194 -60q-23 78 -44.5 159t-35.5 163q-4 23 -7.5 45t-5.5 47q-2 23 -3 45 t-1 45h-233l65 205h199q39 143 106.5 265t149.5 214q63 70 132 120t140 79q41 16 82 25.5t80 9.5q115 0 187.5 -49.5t99.5 -163.5v0zM1040 956q-8 31 -31.5 44.5t-60.5 13.5q-41 0 -89 -20.5t-97 -57.5q-25 -18 -48.5 -41t-47.5 -49q-70 -76 -120 -162t-79 -180h491l13 37 q41 121 58.5 208t17.5 148q0 16 -1.5 31.5t-5.5 27.5v0zM1133 1395l-52 -150l-448 152l51 149l449 -151v0z" />
<glyph unicode="&#xc1;" horiz-adv-x="1165" d="M1235 1004q6 -25 9 -53.5t3 -59.5q0 -78 -20.5 -180.5t-61.5 -231.5l-155 -473h-213l96 293h-459q-2 -37 1 -74t7 -75q4 -29 11.5 -60t13.5 -59q10 -35 20.5 -70t20.5 -70q2 -10 5 -19t5 -17l-194 -60q-23 78 -44.5 159t-35.5 163q-4 23 -7.5 45t-5.5 47q-2 23 -3 45 t-1 45h-233l65 205h199q39 143 106.5 265t149.5 214q63 70 132 120t140 79q41 16 82 25.5t80 9.5q115 0 187.5 -49.5t99.5 -163.5v0zM1040 956q-8 31 -31.5 44.5t-60.5 13.5q-41 0 -89 -20.5t-97 -57.5q-25 -18 -48.5 -41t-47.5 -49q-70 -76 -120 -162t-79 -180h491l13 37 q41 121 58.5 208t17.5 148q0 16 -1.5 31.5t-5.5 27.5v0zM1421 1397l-448 -152l-51 150l448 151l51 -149v0z" />
<glyph unicode="&#xc2;" horiz-adv-x="1165" d="M1235 1004q6 -25 9 -53.5t3 -59.5q0 -78 -20.5 -180.5t-61.5 -231.5l-155 -473h-213l96 293h-459q-2 -37 1 -74t7 -75q4 -29 11.5 -60t13.5 -59q10 -35 20.5 -70t20.5 -70q2 -10 5 -19t5 -17l-194 -60q-23 78 -44.5 159t-35.5 163q-4 23 -7.5 45t-5.5 47q-2 23 -3 45 t-1 45h-233l65 205h199q39 143 106.5 265t149.5 214q63 70 132 120t140 79q41 16 82 25.5t80 9.5q115 0 187.5 -49.5t99.5 -163.5v0zM1040 956q-8 31 -31.5 44.5t-60.5 13.5q-41 0 -89 -20.5t-97 -57.5q-25 -18 -48.5 -41t-47.5 -49q-70 -76 -120 -162t-79 -180h491l13 37 q41 121 58.5 208t17.5 148q0 16 -1.5 31.5t-5.5 27.5v0zM1278 1348l-78 -138l-233 131l-236 -131l-78 138l314 174l311 -174v0z" />
<glyph unicode="&#xc3;" horiz-adv-x="1165" d="M1235 1004q6 -25 9 -53.5t3 -59.5q0 -78 -20.5 -180.5t-61.5 -231.5l-155 -473h-213l96 293h-459q-2 -37 1 -74t7 -75q4 -29 11.5 -60t13.5 -59q10 -35 20.5 -70t20.5 -70q2 -10 5 -19t5 -17l-194 -60q-23 78 -44.5 159t-35.5 163q-4 23 -7.5 45t-5.5 47q-2 23 -3 45 t-1 45h-233l65 205h199q39 143 106.5 265t149.5 214q63 70 132 120t140 79q41 16 82 25.5t80 9.5q115 0 187.5 -49.5t99.5 -163.5v0zM1040 956q-8 31 -31.5 44.5t-60.5 13.5q-41 0 -89 -20.5t-97 -57.5q-25 -18 -48.5 -41t-47.5 -49q-70 -76 -120 -162t-79 -180h491l13 37 q41 121 58.5 208t17.5 148q0 16 -1.5 31.5t-5.5 27.5v0zM1270 1391q-37 -63 -98.5 -97t-131.5 -34q-33 0 -64.5 8t-60.5 24q-12 6 -24 9.5t-25 3.5q-27 0 -51 -13.5t-41 -38.5l-137 78q37 63 98.5 97t130.5 34q33 0 65 -8t60 -24q12 -6 24.5 -9.5t24.5 -3.5q29 0 53.5 13.5 t39.5 39.5l137 -79v0z" />
<glyph unicode="&#xc4;" horiz-adv-x="1165" d="M1235 1004q6 -25 9 -53.5t3 -59.5q0 -78 -20.5 -180.5t-61.5 -231.5l-155 -473h-213l96 293h-459q-2 -37 1 -74t7 -75q4 -29 11.5 -60t13.5 -59q10 -35 20.5 -70t20.5 -70q2 -10 5 -19t5 -17l-194 -60q-23 78 -44.5 159t-35.5 163q-4 23 -7.5 45t-5.5 47q-2 23 -3 45 t-1 45h-233l65 205h199q39 143 106.5 265t149.5 214q63 70 132 120t140 79q41 16 82 25.5t80 9.5q115 0 187.5 -49.5t99.5 -163.5v0zM1040 956q-8 31 -31.5 44.5t-60.5 13.5q-41 0 -89 -20.5t-97 -57.5q-25 -18 -48.5 -41t-47.5 -49q-70 -76 -120 -162t-79 -180h491l13 37 q41 121 58.5 208t17.5 148q0 16 -1.5 31.5t-5.5 27.5v0zM965 1434l-117 -189l-133 84l116 187l134 -82v0zM1249 1434l-114 -189l-136 84l115 187l135 -82v0z" />
<glyph unicode="&#xc5;" horiz-adv-x="1165" d="M1235 1004q6 -25 9 -53.5t3 -59.5q0 -78 -20.5 -180.5t-61.5 -231.5l-155 -473h-213l96 293h-459q-2 -37 1 -74t7 -75q4 -29 11.5 -60t13.5 -59q10 -35 20.5 -70t20.5 -70q2 -10 5 -19t5 -17l-194 -60q-23 78 -44.5 159t-35.5 163q-4 23 -7.5 45t-5.5 47q-2 23 -3 45 t-1 45h-233l65 205h199q39 143 106.5 265t149.5 214q63 70 132 120t140 79q41 16 82 25.5t80 9.5q115 0 187.5 -49.5t99.5 -163.5v0zM1040 956q-8 31 -31.5 44.5t-60.5 13.5q-41 0 -89 -20.5t-97 -57.5q-25 -18 -48.5 -41t-47.5 -49q-70 -76 -120 -162t-79 -180h491l13 37 q41 121 58.5 208t17.5 148q0 16 -1.5 31.5t-5.5 27.5v0zM1130 1389q0 -29 -11 -54.5t-32 -46.5q-18 -20 -44.5 -30.5t-55.5 -10.5q-57 0 -100 42t-43 100q0 31 11 56t30 44v2q23 20 48 30.5t54 10.5q59 0 101 -42t42 -101v0zM1024 1389q0 16 -10 27t-27 11q-8 0 -15 -3 t-11 -7q-6 -4 -8.5 -11t-2.5 -17q0 -14 11.5 -25.5t25.5 -11.5q8 0 15.5 3t11.5 7t7 11t3 16v0z" />
<glyph unicode="&#xc6;" horiz-adv-x="1814" d="M1946 1104q6 -18 9 -35.5t3 -34.5q0 -90 -68.5 -168t-150.5 -141q-43 -33 -85 -61.5t-73 -51.5l-123 160q6 4 50 36t98 73q10 8 19 15t17 15q45 37 79 71t32 52q0 4 -1 6t-5 4q-16 10 -35.5 15.5t-42.5 5.5q-14 0 -29.5 -2t-31.5 -6q-31 -6 -61.5 -16.5t-57.5 -20.5 q-12 -6 -23.5 -12.5t-21.5 -10.5q-12 -6 -39 -22.5t-55 -38.5q-23 -14 -42.5 -32.5t-33.5 -37.5q-14 -16 -21.5 -31.5t-7.5 -29.5q0 -2 1 -4t1 -4t1 -5.5t3 -7.5l-2 4l150 -266q-35 -27 -70 -52.5t-69 -51.5q-35 -25 -70 -51.5t-70 -53.5q-35 -25 -69.5 -51t-69.5 -53h838 l-66 -205h-386h-388q-109 0 -168 53.5t-59 124.5q0 29 9 58.5t30 58.5h-353q0 -23 1 -45.5t3 -46.5q8 -78 27.5 -155t40.5 -150q4 -12 7 -23.5t7 -23.5l-194 -60q-2 6 -3 11.5t-3 9.5q-33 119 -62 239.5t-26 243.5h-234l66 203h196q39 145 106.5 267t149.5 212 q59 66 124 114t130 79q47 20 92 30t88 10q88 0 152.5 -29.5t103.5 -94.5q63 51 139 90t156 61q41 10 82 16.5t80 6.5q53 -2 101.5 -13.5t86.5 -36.5q31 -20 54.5 -47.5t36.5 -62.5v0zM1044 956q-8 29 -30.5 42.5t-59.5 13.5q-41 0 -89 -19.5t-97 -56.5q-25 -18 -48.5 -41 t-47.5 -49q-61 -68 -111.5 -155t-85.5 -189h492q8 25 16 53.5t18 58.5q10 31 18.5 65t16.5 69t12.5 69.5t4.5 67.5q0 20 -2 37.5t-7 33.5v0z" />
<glyph unicode="&#xc7;" horiz-adv-x="931" d="M588 -274q-25 -51 -72 -82t-100 -31h-47h-66h-21.5h-19.5h-40h-29l61 149h135q35 2 48.5 13.5t11.5 25.5q0 4 -1.5 7.5t-1.5 7.5q-4 10 -12 20t-18 17q-27 16 -54.5 32.5t-54.5 32.5q29 51 59.5 100.5t61.5 100.5l133 -82l-39 -70q39 -29 60.5 -71.5t21.5 -90.5 q0 -20 -4 -39.5t-12 -37.5v-2zM1047 1214q45 -33 63 -73.5t18 -87.5q0 -14 -2 -30.5t-6 -31.5q-10 -47 -32.5 -93t-47.5 -85q-31 -47 -71.5 -97t-87.5 -100q-68 -74 -148 -144.5t-162 -133.5l-5 -5t-7 -5l-123 159q68 51 132.5 108.5t121.5 115.5q55 55 100.5 108t77.5 103 q4 4 12.5 17t16.5 32l4 8l4 8q10 18 16.5 35.5t6.5 26.5v1v1l-2 2v0q-12 10 -25.5 13t-30.5 3q-20 0 -41.5 -5t-42.5 -13q-23 -10 -44 -20.5t-42 -22.5q-23 -14 -41 -26.5t-30 -20.5q-29 -20 -60.5 -46t-62.5 -57q-88 -82 -166 -186.5t-113 -214.5q-10 -31 -15 -61.5 t-5 -61.5q0 -53 21.5 -89t78.5 -36h131h150h149.5h130.5l-65 -203h-113.5h-132.5h-135.5h-114.5q-143 0 -224 95.5t-81 232.5q0 12 1 24.5t1 24.5q18 188 144 367.5t276 304.5q23 18 44 35.5t44 33.5q6 4 11 8.5t12 6.5q57 39 125.5 73.5t140.5 47.5q18 4 38.5 6t39.5 2 q45 0 87 -12.5t81 -41.5v0z" />
<glyph unicode="&#xc8;" horiz-adv-x="1124" d="M1194 1106q6 -18 9 -35.5t3 -34.5q0 -90 -68.5 -169t-150.5 -142q-43 -33 -84 -61.5t-72 -51.5l-124 162q6 4 50 35t95 72q10 8 19.5 15t19.5 15q45 37 76.5 70t31.5 51q0 4 -1 7t-5 5q-16 10 -35.5 14.5t-42.5 4.5q-16 0 -32.5 -2t-34.5 -6q-31 -6 -61.5 -16.5 t-55.5 -20.5q-10 -4 -20.5 -9t-18.5 -10q-12 -6 -38.5 -23.5t-55.5 -37.5q-20 -16 -39.5 -33.5t-34.5 -36.5q-12 -16 -20 -32.5t-8 -30.5q0 -6 1 -11.5t3 -9.5l-2 4l151 -266q-35 -27 -70.5 -52.5t-70.5 -51.5q-70 -51 -139.5 -103.5t-139.5 -105.5h854l-65 -203h-394.5 h-396.5q-109 0 -168 53.5t-59 124.5q0 14 3 28.5t7 29.5q12 35 37 68.5t64 62.5q35 25 68.5 50.5t68.5 51.5q35 27 68.5 52.5t68.5 50.5q-2 6 -6 11t-6 9t-5 8l-6 8q-27 43 -48 88.5t-23 98.5q0 150 144.5 271.5t318.5 166.5q41 12 82 17.5t79 5.5q53 0 101.5 -11.5 t87.5 -36.5q33 -20 55.5 -46.5t34.5 -61.5v0zM1030 1440l-51 -150l-449 152l52 149l448 -151v0z" />
<glyph unicode="&#xc9;" horiz-adv-x="1124" d="M1194 1106q6 -18 9 -35.5t3 -34.5q0 -90 -68.5 -169t-150.5 -142q-43 -33 -84 -61.5t-72 -51.5l-124 162q6 4 50 35t95 72q10 8 19.5 15t19.5 15q45 37 76.5 70t31.5 51q0 4 -1 7t-5 5q-16 10 -35.5 14.5t-42.5 4.5q-16 0 -32.5 -2t-34.5 -6q-31 -6 -61.5 -16.5 t-55.5 -20.5q-10 -4 -20.5 -9t-18.5 -10q-12 -6 -38.5 -23.5t-55.5 -37.5q-20 -16 -39.5 -33.5t-34.5 -36.5q-12 -16 -20 -32.5t-8 -30.5q0 -6 1 -11.5t3 -9.5l-2 4l151 -266q-35 -27 -70.5 -52.5t-70.5 -51.5q-70 -51 -139.5 -103.5t-139.5 -105.5h854l-65 -203h-394.5 h-396.5q-109 0 -168 53.5t-59 124.5q0 14 3 28.5t7 29.5q12 35 37 68.5t64 62.5q35 25 68.5 50.5t68.5 51.5q35 27 68.5 52.5t68.5 50.5q-2 6 -6 11t-6 9t-5 8l-6 8q-27 43 -48 88.5t-23 98.5q0 150 144.5 271.5t318.5 166.5q41 12 82 17.5t79 5.5q53 0 101.5 -11.5 t87.5 -36.5q33 -20 55.5 -46.5t34.5 -61.5v0zM1339 1446l-448 -152l-51 150l448 151l51 -149v0z" />
<glyph unicode="&#xca;" horiz-adv-x="1124" d="M1194 1106q6 -18 9 -35.5t3 -34.5q0 -90 -68.5 -169t-150.5 -142q-43 -33 -84 -61.5t-72 -51.5l-124 162q6 4 50 35t95 72q10 8 19.5 15t19.5 15q45 37 76.5 70t31.5 51q0 4 -1 7t-5 5q-16 10 -35.5 14.5t-42.5 4.5q-16 0 -32.5 -2t-34.5 -6q-31 -6 -61.5 -16.5 t-55.5 -20.5q-10 -4 -20.5 -9t-18.5 -10q-12 -6 -38.5 -23.5t-55.5 -37.5q-20 -16 -39.5 -33.5t-34.5 -36.5q-12 -16 -20 -32.5t-8 -30.5q0 -6 1 -11.5t3 -9.5l-2 4l151 -266q-35 -27 -70.5 -52.5t-70.5 -51.5q-70 -51 -139.5 -103.5t-139.5 -105.5h854l-65 -203h-394.5 h-396.5q-109 0 -168 53.5t-59 124.5q0 14 3 28.5t7 29.5q12 35 37 68.5t64 62.5q35 25 68.5 50.5t68.5 51.5q35 27 68.5 52.5t68.5 50.5q-2 6 -6 11t-6 9t-5 8l-6 8q-27 43 -48 88.5t-23 98.5q0 150 144.5 271.5t318.5 166.5q41 12 82 17.5t79 5.5q53 0 101.5 -11.5 t87.5 -36.5q33 -20 55.5 -46.5t34.5 -61.5v0zM1221 1389l-78 -138l-234 131l-235 -131l-78 138l313 174l312 -174v0z" />
<glyph unicode="&#xcb;" horiz-adv-x="1124" d="M1194 1106q6 -18 9 -35.5t3 -34.5q0 -90 -68.5 -169t-150.5 -142q-43 -33 -84 -61.5t-72 -51.5l-124 162q6 4 50 35t95 72q10 8 19.5 15t19.5 15q45 37 76.5 70t31.5 51q0 4 -1 7t-5 5q-16 10 -35.5 14.5t-42.5 4.5q-16 0 -32.5 -2t-34.5 -6q-31 -6 -61.5 -16.5 t-55.5 -20.5q-10 -4 -20.5 -9t-18.5 -10q-12 -6 -38.5 -23.5t-55.5 -37.5q-20 -16 -39.5 -33.5t-34.5 -36.5q-12 -16 -20 -32.5t-8 -30.5q0 -6 1 -11.5t3 -9.5l-2 4l151 -266q-35 -27 -70.5 -52.5t-70.5 -51.5q-70 -51 -139.5 -103.5t-139.5 -105.5h854l-65 -203h-394.5 h-396.5q-109 0 -168 53.5t-59 124.5q0 14 3 28.5t7 29.5q12 35 37 68.5t64 62.5q35 25 68.5 50.5t68.5 51.5q35 27 68.5 52.5t68.5 50.5q-2 6 -6 11t-6 9t-5 8l-6 8q-27 43 -48 88.5t-23 98.5q0 150 144.5 271.5t318.5 166.5q41 12 82 17.5t79 5.5q53 0 101.5 -11.5 t87.5 -36.5q33 -20 55.5 -46.5t34.5 -61.5v0zM928 1470l-117 -188l-133 84l117 186l133 -82v0zM1212 1470l-114 -188l-135 84l114 186l135 -82v0z" />
<glyph unicode="&#xcc;" horiz-adv-x="960" d="M1098 963q-53 -166 -106.5 -331t-106.5 -329q-39 -123 -154 -210t-244 -87h-485l66 203h105h106h104h104q8 0 16.5 1t16.5 3q55 12 105.5 56t66.5 96q27 82 53.5 164.5t53.5 164.5t53.5 165t52.5 165q2 4 3 9t1 7q-8 4 -15 4h-17q-16 0 -36 -5t-38 -11 q-23 -10 -44.5 -21.5t-39.5 -23.5q-18 -10 -32.5 -21.5t-27.5 -19.5q-16 -12 -37.5 -27.5t-41.5 -33.5q-49 -41 -91.5 -94.5t-42.5 -112.5q0 -14 3.5 -27.5t9.5 -28.5q12 -29 30.5 -55t38.5 -53q0 -2 2 -4t5 -4q6 -10 13 -19.5t13 -19.5l-172 -111q-10 16 -20.5 30.5 t-20.5 29.5q-20 29 -39.5 59.5t-36.5 65.5q-14 35 -21 69.5t-7 69.5q0 80 35.5 155.5t95.5 133.5q23 23 49.5 46t54.5 48q66 53 141.5 101t153.5 71q29 10 56.5 14t54.5 4q37 0 71.5 -9t67.5 -32q47 -31 67.5 -74.5t20.5 -91.5q0 -20 -4 -39.5t-10 -39.5v0zM1047 1419 l-52 -149l-448 151l51 150l449 -152v0z" />
<glyph unicode="&#xcd;" horiz-adv-x="960" d="M1098 963q-53 -166 -106.5 -331t-106.5 -329q-39 -123 -154 -210t-244 -87h-485l66 203h105h106h104h104q8 0 16.5 1t16.5 3q55 12 105.5 56t66.5 96q27 82 53.5 164.5t53.5 164.5t53.5 165t52.5 165q2 4 3 9t1 7q-8 4 -15 4h-17q-16 0 -36 -5t-38 -11 q-23 -10 -44.5 -21.5t-39.5 -23.5q-18 -10 -32.5 -21.5t-27.5 -19.5q-16 -12 -37.5 -27.5t-41.5 -33.5q-49 -41 -91.5 -94.5t-42.5 -112.5q0 -14 3.5 -27.5t9.5 -28.5q12 -29 30.5 -55t38.5 -53q0 -2 2 -4t5 -4q6 -10 13 -19.5t13 -19.5l-172 -111q-10 16 -20.5 30.5 t-20.5 29.5q-20 29 -39.5 59.5t-36.5 65.5q-14 35 -21 69.5t-7 69.5q0 80 35.5 155.5t95.5 133.5q23 23 49.5 46t54.5 48q66 53 141.5 101t153.5 71q29 10 56.5 14t54.5 4q37 0 71.5 -9t67.5 -32q47 -31 67.5 -74.5t20.5 -91.5q0 -20 -4 -39.5t-10 -39.5v0zM1343 1434 l-448 -152l-51 150l448 151l51 -149v0z" />
<glyph unicode="&#xce;" horiz-adv-x="960" d="M1098 963q-53 -166 -106.5 -331t-106.5 -329q-39 -123 -154 -210t-244 -87h-485l66 203h105h106h104h104q8 0 16.5 1t16.5 3q55 12 105.5 56t66.5 96q27 82 53.5 164.5t53.5 164.5t53.5 165t52.5 165q2 4 3 9t1 7q-8 4 -15 4h-17q-16 0 -36 -5t-38 -11 q-23 -10 -44.5 -21.5t-39.5 -23.5q-18 -10 -32.5 -21.5t-27.5 -19.5q-16 -12 -37.5 -27.5t-41.5 -33.5q-49 -41 -91.5 -94.5t-42.5 -112.5q0 -14 3.5 -27.5t9.5 -28.5q12 -29 30.5 -55t38.5 -53q0 -2 2 -4t5 -4q6 -10 13 -19.5t13 -19.5l-172 -111q-10 16 -20.5 30.5 t-20.5 29.5q-20 29 -39.5 59.5t-36.5 65.5q-14 35 -21 69.5t-7 69.5q0 80 35.5 155.5t95.5 133.5q23 23 49.5 46t54.5 48q66 53 141.5 101t153.5 71q29 10 56.5 14t54.5 4q37 0 71.5 -9t67.5 -32q47 -31 67.5 -74.5t20.5 -91.5q0 -20 -4 -39.5t-10 -39.5v0zM1184 1356 l-78 -137l-234 131l-235 -131l-78 137l313 174l312 -174v0z" />
<glyph unicode="&#xcf;" horiz-adv-x="960" d="M1098 963q-53 -166 -106.5 -331t-106.5 -329q-39 -123 -154 -210t-244 -87h-485l66 203h105h106h104h104q8 0 16.5 1t16.5 3q55 12 105.5 56t66.5 96q27 82 53.5 164.5t53.5 164.5t53.5 165t52.5 165q2 4 3 9t1 7q-8 4 -15 4h-17q-16 0 -36 -5t-38 -11 q-23 -10 -44.5 -21.5t-39.5 -23.5q-18 -10 -32.5 -21.5t-27.5 -19.5q-16 -12 -37.5 -27.5t-41.5 -33.5q-49 -41 -91.5 -94.5t-42.5 -112.5q0 -14 3.5 -27.5t9.5 -28.5q12 -29 30.5 -55t38.5 -53q0 -2 2 -4t5 -4q6 -10 13 -19.5t13 -19.5l-172 -111q-10 16 -20.5 30.5 t-20.5 29.5q-20 29 -39.5 59.5t-36.5 65.5q-14 35 -21 69.5t-7 69.5q0 80 35.5 155.5t95.5 133.5q23 23 49.5 46t54.5 48q66 53 141.5 101t153.5 71q29 10 56.5 14t54.5 4q37 0 71.5 -9t67.5 -32q47 -31 67.5 -74.5t20.5 -91.5q0 -20 -4 -39.5t-10 -39.5v0zM907 1454 l-116 -188l-134 84l117 186l133 -82v0zM1192 1454l-115 -188l-135 84l115 186l135 -82v0z" />
<glyph unicode="&#xd0;" horiz-adv-x="1206" d="M1274 1112q33 -43 48 -92t15 -102q0 -94 -46 -199t-132 -211q-53 -68 -123.5 -134.5t-154.5 -131.5q-88 -68 -171 -113t-167 -74q-35 -12 -70 -20t-67 -12q-82 -14 -165 -16.5t-167 -2.5h-9.5h-9.5l97 295h-140l66 203h139l96 297h213l-96 -297h129l-65 -203h-129 l-27 -82q119 16 222.5 64.5t197.5 121.5q29 23 77 64t99 92q39 41 78 85t67 91q29 43 45.5 85t16.5 81q0 27 -9.5 51.5t-29.5 44.5q-20 23 -58 33t-90 10q-31 0 -66.5 -3t-76.5 -11q-123 -20 -265.5 -68.5t-287.5 -113.5q-27 -12 -53.5 -24.5t-52.5 -24.5l-89 180 q43 20 85 40.5t85 39.5q141 61 280.5 106t264.5 66q41 6 83 11t85 5q94 -2 182.5 -28.5t145.5 -102.5v0z" />
<glyph unicode="&#xd1;" horiz-adv-x="1300" d="M1530 1217q-23 -55 -50.5 -119t-56.5 -129q-6 -14 -12 -28.5t-12 -27.5q-33 -72 -63.5 -137t-57.5 -119q-72 -137 -154 -270t-174 -250q-6 -8 -12 -15t-12 -16q-35 -37 -79 -69.5t-95 -32.5q-8 0 -16.5 1t-18.5 3q-59 16 -82 64.5t-25 101.5q-2 10 -1 21.5t1 21.5 q8 96 19.5 204.5t25.5 223.5q-25 -45 -49 -90t-51 -88q-74 -125 -147.5 -241.5t-147.5 -219.5h-252q37 49 78 106.5t82 118.5q20 31 40.5 63t41.5 62q35 55 67.5 108.5t61.5 104.5q57 100 114.5 205t112.5 209q31 59 61.5 117.5t59.5 116.5h207q-4 -39 -10 -86.5t-13 -94.5 q0 -4 -1 -10t-1 -10q-8 -53 -14 -103.5t-12 -89.5q-6 -43 -11.5 -87t-11.5 -89q-10 -88 -20.5 -175t-18.5 -171q76 102 145.5 216t129.5 233q61 121 114.5 240.5t96.5 226.5h223v0zM1503 1378q-37 -63 -98.5 -97t-130.5 -34q-33 0 -64.5 8.5t-60.5 24.5q-12 6 -24.5 9 t-24.5 3q-27 0 -51.5 -13t-40.5 -38l-138 78q37 63 98.5 97t131.5 34q33 0 64.5 -8t60.5 -25q12 -6 24.5 -9t24.5 -3q29 0 53.5 13.5t38.5 39.5l137 -80v0z" />
<glyph unicode="&#xd2;" horiz-adv-x="563" />
<glyph unicode="&#xd3;" horiz-adv-x="1263" d="M1489 879l-66 -203h-229q-10 -260 -213 -465t-465 -205q-25 0 -49.5 2t-48.5 6q-186 33 -299 176.5t-113 329.5q0 268 206 482.5t478 214.5q164 0 294 -91.5t183 -246.5h322v0zM991 676h-13h-13q-59 0 -112.5 8t-92.5 66q-16 25 -24.5 49t-8.5 47q0 33 10.5 65.5 t22.5 67.5l4 12t4 13q-20 4 -39.5 7t-38.5 3q-190 0 -335.5 -153.5t-145.5 -340.5q0 -133 84 -222t219 -89q182 0 324.5 143.5t154.5 323.5v0zM1016 1393l-449 -152l-51 150l449 151l51 -149v0z" />
<glyph unicode="&#xd4;" horiz-adv-x="1263" d="M1489 879l-66 -203h-229q-10 -260 -213 -465t-465 -205q-25 0 -49.5 2t-48.5 6q-186 33 -299 176.5t-113 329.5q0 268 206 482.5t478 214.5q164 0 294 -91.5t183 -246.5h322v0zM991 676h-13h-13q-59 0 -112.5 8t-92.5 66q-16 25 -24.5 49t-8.5 47q0 33 10.5 65.5 t22.5 67.5l4 12t4 13q-20 4 -39.5 7t-38.5 3q-190 0 -335.5 -153.5t-145.5 -340.5q0 -133 84 -222t219 -89q182 0 324.5 143.5t154.5 323.5v0zM1012 1331l-78 -137l-234 131l-235 -131l-78 137l313 174l312 -174v0z" />
<glyph unicode="&#xd5;" horiz-adv-x="1263" d="M1489 879l-66 -203h-229q-10 -260 -213 -465t-465 -205q-25 0 -49.5 2t-48.5 6q-186 33 -299 176.5t-113 329.5q0 268 206 482.5t478 214.5q164 0 294 -91.5t183 -246.5h322v0zM991 676h-13h-13q-59 0 -112.5 8t-92.5 66q-16 25 -24.5 49t-8.5 47q0 33 10.5 65.5 t22.5 67.5l4 12t4 13q-20 4 -39.5 7t-38.5 3q-190 0 -335.5 -153.5t-145.5 -340.5q0 -133 84 -222t219 -89q182 0 324.5 143.5t154.5 323.5v0zM1024 1378q-37 -63 -98.5 -97t-130.5 -34q-33 0 -65 8.5t-60 24.5q-12 6 -24.5 9t-24.5 3q-27 0 -51.5 -13t-41.5 -38l-137 78 q37 63 98.5 97t131.5 34q33 0 64.5 -8t59.5 -25q12 -6 24.5 -9t25.5 -3q29 0 53 13.5t39 39.5l137 -80v0z" />
<glyph unicode="&#xd6;" horiz-adv-x="1263" d="M1489 879l-66 -203h-229q-10 -260 -213 -465t-465 -205q-25 0 -49.5 2t-48.5 6q-186 33 -299 176.5t-113 329.5q0 268 206 482.5t478 214.5q164 0 294 -91.5t183 -246.5h322v0zM991 676h-13h-13q-59 0 -112.5 8t-92.5 66q-16 25 -24.5 49t-8.5 47q0 33 10.5 65.5 t22.5 67.5l4 12t4 13q-20 4 -39.5 7t-38.5 3q-190 0 -335.5 -153.5t-145.5 -340.5q0 -133 84 -222t219 -89q182 0 324.5 143.5t154.5 323.5v0zM698 1409l-116 -188l-133 84l116 186l133 -82v0zM983 1409l-115 -188l-135 84l115 186l135 -82v0z" />
<glyph unicode="&#xd7;" />
<glyph unicode="&#xd8;" horiz-adv-x="1271" d="M1495 879l-65 -203h-230q-10 -260 -214 -465t-466 -205q-25 0 -49.5 2t-48.5 6q-27 4 -51.5 11.5t-46.5 15.5l-144 -231h-117l175 276q-106 70 -167 184.5t-61 249.5q0 268 206 482.5t478 214.5q59 0 114.5 -12.5t106.5 -37.5l111 174h115l-142 -223q59 -45 103.5 -105.5 t68.5 -133.5h324v0zM995 676h-13h-13q-57 0 -110.5 8t-92.5 61l-332 -526q20 -6 41 -8t41 -2q184 0 326.5 143.5t152.5 323.5v0zM772 1004q-10 2 -19.5 4t-19.5 4q-10 0 -19 1t-20 1q-188 0 -333.5 -153.5t-145.5 -340.5q0 -84 35 -152.5t94 -109.5l391 623q4 27 12.5 52 t16.5 50q2 6 4 11l4 10v0z" />
<glyph unicode="&#xd9;" horiz-adv-x="1026" d="M1194 1217q-20 -37 -39.5 -74t-40.5 -76q-6 -10 -12 -21.5t-10 -21.5q-16 -27 -30.5 -55.5t-25.5 -57.5q-31 -88 -59.5 -176t-56.5 -174q-8 -31 -17.5 -59.5t-19.5 -59.5q-18 -57 -37 -115.5t-37 -117.5h201l-60 -203h-170q-63 0 -112.5 41t-63.5 100 q-68 -66 -144.5 -103.5t-166.5 -37.5q-158 0 -220.5 83t-62.5 214q0 123 38 243t83 236q14 37 28.5 73t26.5 73q14 41 20.5 62.5t6.5 29.5q0 4 -1 7t-5 3q-20 8 -43 12.5t-45 8.5q-4 2 -7 2t-8 2q-14 2 -28.5 4t-28.5 6l41 197q14 -2 28.5 -5.5t28.5 -5.5q4 0 9.5 -1t9.5 -1 q27 -4 55.5 -10t54.5 -16q82 -29 113 -78t31 -109q0 -31 -6 -62.5t-17 -64.5l-16 -46t-17 -48q-6 -12 -11 -24.5t-9 -24.5q-8 -23 -18.5 -48.5t-20.5 -51.5q-10 -31 -21.5 -62t-21.5 -63q-20 -63 -33.5 -125t-13.5 -113q0 -41 17.5 -67.5t62.5 -26.5q143 0 259 193.5 t222 424.5q4 10 9 19.5t10 19.5q4 8 7 15.5t7 13.5q10 23 20.5 44.5t18.5 43.5q16 39 28.5 78t22.5 78q2 2 3 5t1 5q4 16 9 33.5t12 34.5h272v0zM838 1378l-52 -149l-448 151l51 150l449 -152v0z" />
<glyph unicode="&#xda;" horiz-adv-x="1026" d="M1194 1217q-20 -37 -39.5 -74t-40.5 -76q-6 -10 -12 -21.5t-10 -21.5q-16 -27 -30.5 -55.5t-25.5 -57.5q-31 -88 -59.5 -176t-56.5 -174q-8 -31 -17.5 -59.5t-19.5 -59.5q-18 -57 -37 -115.5t-37 -117.5h201l-60 -203h-170q-63 0 -112.5 41t-63.5 100 q-68 -66 -144.5 -103.5t-166.5 -37.5q-158 0 -220.5 83t-62.5 214q0 123 38 243t83 236q14 37 28.5 73t26.5 73q14 41 20.5 62.5t6.5 29.5q0 4 -1 7t-5 3q-20 8 -43 12.5t-45 8.5q-4 2 -7 2t-8 2q-14 2 -28.5 4t-28.5 6l41 197q14 -2 28.5 -5.5t28.5 -5.5q4 0 9.5 -1t9.5 -1 q27 -4 55.5 -10t54.5 -16q82 -29 113 -78t31 -109q0 -31 -6 -62.5t-17 -64.5l-16 -46t-17 -48q-6 -12 -11 -24.5t-9 -24.5q-8 -23 -18.5 -48.5t-20.5 -51.5q-10 -31 -21.5 -62t-21.5 -63q-20 -63 -33.5 -125t-13.5 -113q0 -41 17.5 -67.5t62.5 -26.5q143 0 259 193.5 t222 424.5q4 10 9 19.5t10 19.5q4 8 7 15.5t7 13.5q10 23 20.5 44.5t18.5 43.5q16 39 28.5 78t22.5 78q2 2 3 5t1 5q4 16 9 33.5t12 34.5h272v0zM1044 1401l-448 -152l-51 150l448 151l51 -149v0z" />
<glyph unicode="&#xdb;" horiz-adv-x="1026" d="M1194 1217q-20 -37 -39.5 -74t-40.5 -76q-6 -10 -12 -21.5t-10 -21.5q-16 -27 -30.5 -55.5t-25.5 -57.5q-31 -88 -59.5 -176t-56.5 -174q-8 -31 -17.5 -59.5t-19.5 -59.5q-18 -57 -37 -115.5t-37 -117.5h201l-60 -203h-170q-63 0 -112.5 41t-63.5 100 q-68 -66 -144.5 -103.5t-166.5 -37.5q-158 0 -220.5 83t-62.5 214q0 123 38 243t83 236q14 37 28.5 73t26.5 73q14 41 20.5 62.5t6.5 29.5q0 4 -1 7t-5 3q-20 8 -43 12.5t-45 8.5q-4 2 -7 2t-8 2q-14 2 -28.5 4t-28.5 6l41 197q14 -2 28.5 -5.5t28.5 -5.5q4 0 9.5 -1t9.5 -1 q27 -4 55.5 -10t54.5 -16q82 -29 113 -78t31 -109q0 -31 -6 -62.5t-17 -64.5l-16 -46t-17 -48q-6 -12 -11 -24.5t-9 -24.5q-8 -23 -18.5 -48.5t-20.5 -51.5q-10 -31 -21.5 -62t-21.5 -63q-20 -63 -33.5 -125t-13.5 -113q0 -41 17.5 -67.5t62.5 -26.5q143 0 259 193.5 t222 424.5q4 10 9 19.5t10 19.5q4 8 7 15.5t7 13.5q10 23 20.5 44.5t18.5 43.5q16 39 28.5 78t22.5 78q2 2 3 5t1 5q4 16 9 33.5t12 34.5h272v0zM979 1368l-78 -137l-233 131l-236 -131l-78 137l314 174l311 -174v0z" />
<glyph unicode="&#xdc;" horiz-adv-x="1026" d="M1194 1217q-20 -37 -39.5 -74t-40.5 -76q-6 -10 -12 -21.5t-10 -21.5q-16 -27 -30.5 -55.5t-25.5 -57.5q-31 -88 -59.5 -176t-56.5 -174q-8 -31 -17.5 -59.5t-19.5 -59.5q-18 -57 -37 -115.5t-37 -117.5h201l-60 -203h-170q-63 0 -112.5 41t-63.5 100 q-68 -66 -144.5 -103.5t-166.5 -37.5q-158 0 -220.5 83t-62.5 214q0 123 38 243t83 236q14 37 28.5 73t26.5 73q14 41 20.5 62.5t6.5 29.5q0 4 -1 7t-5 3q-20 8 -43 12.5t-45 8.5q-4 2 -7 2t-8 2q-14 2 -28.5 4t-28.5 6l41 197q14 -2 28.5 -5.5t28.5 -5.5q4 0 9.5 -1t9.5 -1 q27 -4 55.5 -10t54.5 -16q82 -29 113 -78t31 -109q0 -31 -6 -62.5t-17 -64.5l-16 -46t-17 -48q-6 -12 -11 -24.5t-9 -24.5q-8 -23 -18.5 -48.5t-20.5 -51.5q-10 -31 -21.5 -62t-21.5 -63q-20 -63 -33.5 -125t-13.5 -113q0 -41 17.5 -67.5t62.5 -26.5q143 0 259 193.5 t222 424.5q4 10 9 19.5t10 19.5q4 8 7 15.5t7 13.5q10 23 20.5 44.5t18.5 43.5q16 39 28.5 78t22.5 78q2 2 3 5t1 5q4 16 9 33.5t12 34.5h272v0zM653 1409l-116 -188l-134 84l117 186l133 -82v0zM938 1409l-115 -188l-135 84l115 186l135 -82v0z" />
<glyph unicode="&#xdd;" horiz-adv-x="563" />
<glyph unicode="&#xde;" horiz-adv-x="1085" d="M1180 725q-4 -39 -12.5 -80t-20.5 -82q-49 -172 -163 -315.5t-304 -143.5h-56.5h-66.5h-120t-46 0l103 205h55h39h38.5h53.5q92 0 168 98.5t110 217.5q12 41 19.5 82t7.5 77q0 23 -2 42.5t-8 35.5q-2 4 -4 5t-6 1q-8 0 -22.5 -6t-29.5 -12l-8 -4t-6 -4l-31.5 -17.5 t-15.5 -9.5q-137 -113 -261 -242t-202 -288l-196 -387h-238l444 860q27 51 38.5 89t11.5 64q0 74 -72 87.5t-176 15.5h-4h-4l65 200h123q158 0 217 -92t51 -213q72 63 152 111.5t166 48.5h9t11 -2q4 0 9 -1t10 -1q104 -18 142 -96t38 -168v-18.5t-2 -18.5q0 -10 -1 -19.5 t-3 -19.5v0z" />
<glyph unicode="&#xdf;" horiz-adv-x="1064" d="M1090 209l-66 -205h-662l68 205h137q55 0 93 28.5t38 88.5q0 66 -37.5 114.5t-85.5 89.5q-10 12 -22 22.5t-23 20.5q-12 12 -23 23.5t-24 21.5q-12 12 -23 23.5t-24 22.5q25 16 49.5 31.5t49.5 31.5t50 31.5t50 32.5q6 4 13 8t14 10q35 27 65.5 65.5t30.5 83.5 q0 29 -16.5 41.5t-43.5 12.5q-6 0 -13 -1t-13 -1q-57 -10 -107.5 -54.5t-66.5 -95.5l-320 -981h-213q47 145 95.5 291.5t95.5 292.5h-131l65 203h131q10 33 20.5 64.5t20.5 64.5q10 31 20.5 62.5t20.5 64.5q37 117 148.5 203.5t236.5 91.5h4h4q23 0 46.5 -3.5t45.5 -11.5 q80 -27 126.5 -93.5t46.5 -150.5q0 -100 -57.5 -185t-139.5 -140q57 -59 94 -135t43 -156v-9v-11q0 -29 -5 -56.5t-15 -56.5h209v0z" />
<glyph unicode="&#xe0;" horiz-adv-x="751" d="M797 207l-66 -203h-199q-33 0 -59.5 10.5t-48.5 26.5q-31 -18 -66.5 -30.5t-70.5 -16.5q-12 -2 -24.5 -3t-24.5 -1q-63 0 -120 28.5t-89 92.5q-12 27 -18.5 52t-6.5 52q0 53 20.5 103.5t53.5 93.5q102 137 254.5 193.5t316.5 60.5h13.5h15.5v-203q-66 0 -130.5 -8.5 t-123.5 -30.5q-53 -18 -100.5 -51t-81.5 -80q-2 -4 -6.5 -10.5t-8.5 -14.5q-4 -6 -7 -12l-7 -14q-2 -6 -4 -14.5t-2 -14.5q0 -8 6 -15.5t20 -7.5q80 0 119 53.5t62 116.5q4 14 8 26.5t8 25.5l193 -64l-45 -141h219v0zM662 874l-52 -149l-448 152l51 149l449 -152v0z" />
<glyph unicode="&#xe1;" horiz-adv-x="751" d="M797 207l-66 -203h-199q-33 0 -59.5 10.5t-48.5 26.5q-31 -18 -66.5 -30.5t-70.5 -16.5q-12 -2 -24.5 -3t-24.5 -1q-63 0 -120 28.5t-89 92.5q-12 27 -18.5 52t-6.5 52q0 53 20.5 103.5t53.5 93.5q102 137 254.5 193.5t316.5 60.5h13.5h15.5v-203q-66 0 -130.5 -8.5 t-123.5 -30.5q-53 -18 -100.5 -51t-81.5 -80q-2 -4 -6.5 -10.5t-8.5 -14.5q-4 -6 -7 -12l-7 -14q-2 -6 -4 -14.5t-2 -14.5q0 -8 6 -15.5t20 -7.5q80 0 119 53.5t62 116.5q4 14 8 26.5t8 25.5l193 -64l-45 -141h219v0zM856 852l-448 -152l-52 150l449 151l51 -149v0z" />
<glyph unicode="&#xe2;" horiz-adv-x="751" d="M797 207l-66 -203h-199q-33 0 -59.5 10.5t-48.5 26.5q-31 -18 -66.5 -30.5t-70.5 -16.5q-12 -2 -24.5 -3t-24.5 -1q-63 0 -120 28.5t-89 92.5q-12 27 -18.5 52t-6.5 52q0 53 20.5 103.5t53.5 93.5q102 137 254.5 193.5t316.5 60.5h13.5h15.5v-203q-66 0 -130.5 -8.5 t-123.5 -30.5q-53 -18 -100.5 -51t-81.5 -80q-2 -4 -6.5 -10.5t-8.5 -14.5q-4 -6 -7 -12l-7 -14q-2 -6 -4 -14.5t-2 -14.5q0 -8 6 -15.5t20 -7.5q80 0 119 53.5t62 116.5q4 14 8 26.5t8 25.5l193 -64l-45 -141h219v0zM823 819l-78 -137l-233 131l-236 -131l-77 137l313 174 l311 -174v0z" />
<glyph unicode="&#xe3;" horiz-adv-x="751" d="M797 207l-66 -203h-199q-33 0 -59.5 10.5t-48.5 26.5q-31 -18 -66.5 -30.5t-70.5 -16.5q-12 -2 -24.5 -3t-24.5 -1q-63 0 -120 28.5t-89 92.5q-12 27 -18.5 52t-6.5 52q0 53 20.5 103.5t53.5 93.5q102 137 254.5 193.5t316.5 60.5h13.5h15.5v-203q-66 0 -130.5 -8.5 t-123.5 -30.5q-53 -18 -100.5 -51t-81.5 -80q-2 -4 -6.5 -10.5t-8.5 -14.5q-4 -6 -7 -12l-7 -14q-2 -6 -4 -14.5t-2 -14.5q0 -8 6 -15.5t20 -7.5q80 0 119 53.5t62 116.5q4 14 8 26.5t8 25.5l193 -64l-45 -141h219v0zM823 838q-37 -63 -98 -97t-131 -34q-33 0 -64.5 8 t-60.5 24q-12 6 -24.5 9.5t-24.5 3.5q-27 0 -51.5 -13.5t-40.5 -38.5l-138 78q37 63 98.5 97t131.5 34q33 0 64.5 -8t60.5 -24q12 -6 24.5 -9.5t24.5 -3.5q29 0 53.5 13.5t38.5 40.5l137 -80v0z" />
<glyph unicode="&#xe4;" horiz-adv-x="751" d="M797 207l-66 -203h-199q-33 0 -59.5 10.5t-48.5 26.5q-31 -18 -66.5 -30.5t-70.5 -16.5q-12 -2 -24.5 -3t-24.5 -1q-63 0 -120 28.5t-89 92.5q-12 27 -18.5 52t-6.5 52q0 53 20.5 103.5t53.5 93.5q102 137 254.5 193.5t316.5 60.5h13.5h15.5v-203q-66 0 -130.5 -8.5 t-123.5 -30.5q-53 -18 -100.5 -51t-81.5 -80q-2 -4 -6.5 -10.5t-8.5 -14.5q-4 -6 -7 -12l-7 -14q-2 -6 -4 -14.5t-2 -14.5q0 -8 6 -15.5t20 -7.5q80 0 119 53.5t62 116.5q4 14 8 26.5t8 25.5l193 -64l-45 -141h219v0zM510 885l-117 -189l-133 84l117 187l133 -82v0zM795 885 l-115 -189l-135 84l114 187l136 -82v0z" />
<glyph unicode="&#xe5;" horiz-adv-x="751" d="M797 207l-66 -203h-199q-33 0 -59.5 10.5t-48.5 26.5q-31 -18 -66.5 -30.5t-70.5 -16.5q-12 -2 -24.5 -3t-24.5 -1q-63 0 -120 28.5t-89 92.5q-12 27 -18.5 52t-6.5 52q0 53 20.5 103.5t53.5 93.5q102 137 254.5 193.5t316.5 60.5h13.5h15.5v-203q-66 0 -130.5 -8.5 t-123.5 -30.5q-53 -18 -100.5 -51t-81.5 -80q-2 -4 -6.5 -10.5t-8.5 -14.5q-4 -6 -7 -12l-7 -14q-2 -6 -4 -14.5t-2 -14.5q0 -8 6 -15.5t20 -7.5q80 0 119 53.5t62 116.5q4 14 8 26.5t8 25.5l193 -64l-45 -141h219v0zM688 842q0 -29 -11 -54.5t-32 -46.5q-18 -20 -45 -30.5 t-55 -10.5q-57 0 -100.5 42t-43.5 100q0 31 11.5 56.5t29.5 43.5v2q23 20 48.5 30.5t54.5 10.5q59 0 101 -42t42 -101v0zM582 842q0 16 -10.5 27.5t-26.5 11.5q-8 0 -15.5 -3.5t-11.5 -7.5q-6 -4 -8 -11t-2 -17q0 -14 11 -25.5t26 -11.5q8 0 15 3t11 7t7.5 11.5t3.5 15.5v0z " />
<glyph unicode="&#xe6;" horiz-adv-x="1251" d="M1262 207l-68 -203h-653q-33 0 -59.5 10.5t-49.5 26.5q-31 -18 -66.5 -30.5t-70.5 -16.5q-12 -2 -24.5 -3t-24.5 -1q-63 0 -119.5 28.5t-89.5 92.5q-12 27 -17.5 52t-5.5 52q0 53 19.5 103.5t52.5 93.5q102 141 260 196.5t326 57.5h7h7v-146q41 53 87 90t95 58 q23 10 47.5 17t47.5 11q12 2 24 3t27 1q84 0 148.5 -48t64.5 -132q0 -16 -3 -34.5t-12 -39.5q-16 -49 -66 -110.5t-145 -128.5h261v0zM647 461q-55 -2 -109.5 -11.5t-105.5 -25.5q-53 -18 -100 -51t-82 -80q-2 -4 -6 -10.5t-8 -12.5t-7.5 -13t-5.5 -15q-4 -6 -5 -14.5 t-1 -14.5q0 -8 6 -15.5t21 -7.5q80 0 117.5 53.5t60.5 116.5q4 14 8 26.5t8 25.5l162 -54q2 4 4 9.5t4 9.5q0 4 2 9t4 9q8 16 16.5 33.5t16.5 32.5v0zM1016 500q-74 -2 -129.5 -56.5t-81.5 -119.5q0 -2 -1 -3.5t-1 -3.5q94 57 145 103.5t68 79.5v0z" />
<glyph unicode="&#xe7;" horiz-adv-x="700" d="M508 -299q-25 -51 -72 -82t-100 -31h-47h-66h-21.5h-19.5h-40h-29l61 150h135q35 2 48.5 13t11.5 26q0 4 -1 7t-1 7q-4 10 -12.5 20.5t-18.5 16.5q-27 16 -54.5 32.5t-54.5 33.5q29 51 59.5 100t61.5 100l133 -82l-39 -69q39 -29 60.5 -72t21.5 -90q0 -20 -4 -40t-12 -38 v-2zM737 207l-67 -203h-455q-57 0 -106.5 25.5t-75.5 76.5q-12 25 -17.5 50.5t-5.5 52.5q0 51 15.5 100t35.5 92q0 2 1 3.5t1 3.5q55 106 167 194t237 88h7h7q2 -2 6.5 -2h8.5q78 -8 127 -57t49 -125v-6v-6q0 -4 -1 -7.5t-1 -7.5l-11 -90h-204l10 98q-59 -4 -112.5 -47 t-86.5 -94q-6 -10 -11 -18.5t-9 -16.5q0 -2 -5 -13t-12 -28q-2 -2 -3 -5t-3 -5q-4 -14 -8 -27.5t-4 -19.5q0 -2 1 -4t3 -2h522v0z" />
<glyph unicode="&#xe8;" horiz-adv-x="700" d="M721 207l-68 -203h-446q-55 0 -103.5 23.5t-74.5 72.5q-12 23 -18.5 49.5t-6.5 53.5q0 6 1 13t1 15q4 41 17.5 83t27.5 77q43 98 105.5 162.5t130.5 97.5q29 16 56.5 25.5t53.5 13.5q12 2 24.5 3t27.5 1q84 0 149.5 -47t65.5 -131q0 -16 -3.5 -33.5t-11.5 -38.5 q-16 -51 -67.5 -111.5t-143.5 -125.5h283v0zM453 496q-74 -4 -129.5 -57.5t-81.5 -116.5q0 -2 -1 -3.5t-1 -3.5q94 55 144 101.5t69 79.5v0zM616 883l-51 -150l-448 152l51 149l448 -151v0z" />
<glyph unicode="&#xe9;" horiz-adv-x="700" d="M721 207l-68 -203h-446q-55 0 -103.5 23.5t-74.5 72.5q-12 23 -18.5 49.5t-6.5 53.5q0 6 1 13t1 15q4 41 17.5 83t27.5 77q43 98 105.5 162.5t130.5 97.5q29 16 56.5 25.5t53.5 13.5q12 2 24.5 3t27.5 1q84 0 149.5 -47t65.5 -131q0 -16 -3.5 -33.5t-11.5 -38.5 q-16 -51 -67.5 -111.5t-143.5 -125.5h283v0zM453 496q-74 -4 -129.5 -57.5t-81.5 -116.5q0 -2 -1 -3.5t-1 -3.5q94 55 144 101.5t69 79.5v0zM811 889l-449 -152l-51 150l449 151l51 -149v0z" />
<glyph unicode="&#xea;" horiz-adv-x="700" d="M721 207l-68 -203h-446q-55 0 -103.5 23.5t-74.5 72.5q-12 23 -18.5 49.5t-6.5 53.5q0 6 1 13t1 15q4 41 17.5 83t27.5 77q43 98 105.5 162.5t130.5 97.5q29 16 56.5 25.5t53.5 13.5q12 2 24.5 3t27.5 1q84 0 149.5 -47t65.5 -131q0 -16 -3.5 -33.5t-11.5 -38.5 q-16 -51 -67.5 -111.5t-143.5 -125.5h283v0zM453 496q-74 -4 -129.5 -57.5t-81.5 -116.5q0 -2 -1 -3.5t-1 -3.5q94 55 144 101.5t69 79.5v0zM754 807l-78 -137l-234 131l-235 -131l-78 137l313 174l312 -174v0z" />
<glyph unicode="&#xeb;" horiz-adv-x="700" d="M721 207l-68 -203h-446q-55 0 -103.5 23.5t-74.5 72.5q-12 23 -18.5 49.5t-6.5 53.5q0 6 1 13t1 15q4 41 17.5 83t27.5 77q43 98 105.5 162.5t130.5 97.5q29 16 56.5 25.5t53.5 13.5q12 2 24.5 3t27.5 1q84 0 149.5 -47t65.5 -131q0 -16 -3.5 -33.5t-11.5 -38.5 q-16 -51 -67.5 -111.5t-143.5 -125.5h283v0zM453 496q-74 -4 -129.5 -57.5t-81.5 -116.5q0 -2 -1 -3.5t-1 -3.5q94 55 144 101.5t69 79.5v0zM420 893l-117 -188l-133 83l117 187l133 -82v0zM705 893l-115 -188l-135 83l114 187l136 -82v0z" />
<glyph unicode="&#xec;" horiz-adv-x="405" d="M426 207l-66 -203h-184q-76 0 -123 50t-47 118q0 8 1 15.5t1 15.5q2 6 4 13t4 15l140 437h215l-148 -461h203v0zM362 862l-51 -149l-448 151l51 150l448 -152v0z" />
<glyph unicode="&#xed;" horiz-adv-x="405" d="M426 207l-66 -203h-184q-76 0 -123 50t-47 118q0 8 1 15.5t1 15.5q2 6 4 13t4 15l140 437h215l-148 -461h203v0zM688 856l-448 -151l-52 149l449 152l51 -150v0z" />
<glyph unicode="&#xee;" horiz-adv-x="405" d="M426 207l-66 -203h-184q-76 0 -123 50t-47 118q0 8 1 15.5t1 15.5q2 6 4 13t4 15l140 437h215l-148 -461h203v0zM582 795l-78 -138l-234 131l-235 -131l-78 138l313 174l312 -174v0z" />
<glyph unicode="&#xef;" horiz-adv-x="405" d="M426 207l-66 -203h-184q-76 0 -123 50t-47 118q0 8 1 15.5t1 15.5q2 6 4 13t4 15l140 437h215l-148 -461h203v0zM272 897l-116 -188l-133 84l116 186l133 -82v0zM557 897l-115 -188l-135 84l115 186l135 -82v0z" />
<glyph unicode="&#xf0;" horiz-adv-x="952" d="M1028 1020l-127 -68q10 -33 13.5 -68.5t3.5 -72.5q0 -16 -1.5 -33.5t-3.5 -34.5q-2 -18 -4 -35.5t-4 -33.5q-6 -49 -20.5 -103.5t-30.5 -107.5q-10 -27 -19.5 -54.5t-17.5 -54.5q-14 -37 -26.5 -73.5t-24.5 -71.5h205l-66 -205h-184q-51 0 -90 25.5t-60 64.5 q-63 -41 -137 -65.5t-158 -24.5q-125 -2 -197.5 63.5t-72.5 165.5q0 35 9.5 71t27.5 75q63 123 189 190.5t264 87.5q31 4 61.5 6.5t58.5 2.5q23 0 42.5 -1t39.5 -3q8 37 12.5 74.5t4.5 76.5v21.5t-2 21.5l-185 -94l-71 139l194 100q-12 8 -27.5 11.5t-31.5 3.5 q-8 0 -15.5 -1t-13.5 -1q-33 -6 -62.5 -19.5t-47.5 -29.5l-127 159q45 35 98 58.5t111 31.5q14 2 27 3.5t28 1.5q72 0 137.5 -29t110.5 -92l118 59l72 -137v0zM629 463q-33 0 -70 -3t-74 -9q-80 -16 -152.5 -55.5t-107.5 -108.5q-8 -14 -11 -25.5t-3 -21.5q0 -16 16.5 -24.5 t48.5 -8.5q121 2 210 78.5t143 177.5v0z" />
<glyph unicode="&#xf1;" horiz-adv-x="827" d="M831 207l-67 -203h-141q-76 0 -123 49t-47 119q0 14 3 29.5t7 29.5t8 27.5t8 26.5q8 27 16.5 53.5t16.5 52.5q2 4 3 8t1 9q4 10 7 22t5 25q-16 -6 -38.5 -20.5t-45.5 -35.5q-57 -49 -107 -116.5t-79 -139.5l-45 -139h-213l215 664h213l-14 -43q23 12 46 21t48 13 q12 4 23.5 5.5t23.5 1.5q16 0 33.5 -3.5t32.5 -9.5q59 -20 85.5 -71.5t26.5 -110.5q0 -31 -7 -66.5t-21 -76.5q-6 -14 -10.5 -29.5t-8.5 -30.5q-2 -6 -4 -11t-2 -9q-4 -10 -6 -20.5t-6 -20.5h163v0zM844 842q-37 -63 -98.5 -97t-131.5 -34q-33 0 -64.5 8t-60.5 24 q-12 6 -24 9.5t-25 3.5q-27 0 -51 -13.5t-41 -37.5l-137 77q37 63 98.5 97t130.5 34q33 0 65 -8t60 -24q12 -6 24.5 -9.5t24.5 -3.5q29 0 53.5 13.5t39.5 40.5l137 -80v0z" />
<glyph unicode="&#xf2;" horiz-adv-x="718" d="M819 508l-67 -209h-99q-27 -119 -126 -207t-226 -88h-11t-11 2q-6 0 -11.5 1t-11.5 1q-113 16 -181.5 101.5t-68.5 197.5q0 145 106.5 259t256.5 114q90 0 160.5 -47t105.5 -125h184v0zM434 303q-53 10 -91 51t-44 99q-33 -20 -55.5 -54t-28.5 -71v-5.5v-5.5q-2 -2 -2 -5 v-5q2 -37 23.5 -65.5t64.5 -28.5q41 0 77 26.5t56 63.5v0zM612 854l-51 -149l-448 151l51 150l448 -152v0z" />
<glyph unicode="&#xf3;" horiz-adv-x="718" d="M819 508l-67 -209h-99q-27 -119 -126 -207t-226 -88h-11t-11 2q-6 0 -11.5 1t-11.5 1q-113 16 -181.5 101.5t-68.5 197.5q0 145 106.5 259t256.5 114q90 0 160.5 -47t105.5 -125h184v0zM434 303q-53 10 -91 51t-44 99q-33 -20 -55.5 -54t-28.5 -71v-5.5v-5.5q-2 -2 -2 -5 v-5q2 -37 23.5 -65.5t64.5 -28.5q41 0 77 26.5t56 63.5v0zM827 881l-448 -152l-51 150l448 151l51 -149v0z" />
<glyph unicode="&#xf4;" horiz-adv-x="718" d="M819 508l-67 -209h-99q-27 -119 -126 -207t-226 -88h-11t-11 2q-6 0 -11.5 1t-11.5 1q-113 16 -181.5 101.5t-68.5 197.5q0 145 106.5 259t256.5 114q90 0 160.5 -47t105.5 -125h184v0zM434 303q-53 10 -91 51t-44 99q-33 -20 -55.5 -54t-28.5 -71v-5.5v-5.5q-2 -2 -2 -5 v-5q2 -37 23.5 -65.5t64.5 -28.5q41 0 77 26.5t56 63.5v0zM672 799l-78 -137l-234 131l-235 -131l-78 137l313 174l312 -174v0z" />
<glyph unicode="&#xf5;" horiz-adv-x="718" d="M819 508l-67 -209h-99q-27 -119 -126 -207t-226 -88h-11t-11 2q-6 0 -11.5 1t-11.5 1q-113 16 -181.5 101.5t-68.5 197.5q0 145 106.5 259t256.5 114q90 0 160.5 -47t105.5 -125h184v0zM434 303q-53 10 -91 51t-44 99q-33 -20 -55.5 -54t-28.5 -71v-5.5v-5.5q-2 -2 -2 -5 v-5q2 -37 23.5 -65.5t64.5 -28.5q41 0 77 26.5t56 63.5v0zM721 846q-37 -63 -98.5 -97t-130.5 -34q-33 0 -65 8t-60 25q-12 6 -24.5 9t-25.5 3q-27 0 -51 -13.5t-41 -37.5l-137 77q37 63 98.5 97.5t130.5 34.5q33 0 65 -8.5t60 -24.5q12 -6 24.5 -9.5t25.5 -3.5 q29 0 53 13.5t39 40.5l137 -80v0z" />
<glyph unicode="&#xf6;" horiz-adv-x="718" d="M819 508l-67 -209h-99q-27 -119 -126 -207t-226 -88h-11t-11 2q-6 0 -11.5 1t-11.5 1q-113 16 -181.5 101.5t-68.5 197.5q0 145 106.5 259t256.5 114q90 0 160.5 -47t105.5 -125h184v0zM434 303q-53 10 -91 51t-44 99q-33 -20 -55.5 -54t-28.5 -71v-5.5v-5.5q-2 -2 -2 -5 v-5q2 -37 23.5 -65.5t64.5 -28.5q41 0 77 26.5t56 63.5v0zM354 881l-116 -189l-134 84l117 187l133 -82v0zM639 881l-115 -189l-135 84l115 187l135 -82v0z" />
<glyph unicode="&#xf7;" />
<glyph unicode="&#xf8;" horiz-adv-x="704" d="M817 508l-65 -209h-101q-27 -119 -126 -207t-226 -88q-10 0 -21.5 1t-21.5 3q-4 0 -8 1t-8 1q-8 2 -16.5 5t-16.5 5l-92 -145h-115l119 191q-53 41 -84 104t-31 137q0 145 107.5 259t255.5 114q35 0 65.5 -6t56.5 -19l91 144h114l-125 -199q20 -20 37 -42.5t27 -49.5h184 v0zM434 303q-10 4 -20.5 7t-20.5 7l-65 -102q35 10 62.5 33.5t43.5 54.5v0zM319 385q-8 16 -13 32.5t-7 35.5q-33 -20 -56.5 -54t-27.5 -71q-2 -6 -2 -12.5v-12.5q0 -16 5 -31.5t13 -25.5l88 139v0z" />
<glyph unicode="&#xf9;" horiz-adv-x="692" d="M713 207l-68 -203h-29.5h-31.5q-45 0 -87 16.5t-75 45.5q-41 -29 -89 -45.5t-97 -16.5q-10 0 -19.5 1t-19.5 3q-10 0 -19.5 3t-19.5 5q-74 25 -112 84.5t-36 128.5q0 10 1 20.5t3 20.5q0 10 3 20.5t6 20.5l114 357h213l-135 -420q-2 -6 -3 -12.5t-1 -10.5q0 -8 5 -13 t20 -5q6 0 12 1t12 3q35 8 65.5 35.5t41.5 58.5q0 2 1 3t1 3l116 357h211l-133 -420q-2 -6 -3 -12.5t-1 -10.5q0 -8 5 -13t20 -5h129v0zM641 858l-51 -149l-449 151l52 150l448 -152v0z" />
<glyph unicode="&#xfa;" horiz-adv-x="692" d="M713 207l-68 -203h-29.5h-31.5q-45 0 -87 16.5t-75 45.5q-41 -29 -89 -45.5t-97 -16.5q-10 0 -19.5 1t-19.5 3q-10 0 -19.5 3t-19.5 5q-74 25 -112 84.5t-36 128.5q0 10 1 20.5t3 20.5q0 10 3 20.5t6 20.5l114 357h213l-135 -420q-2 -6 -3 -12.5t-1 -10.5q0 -8 5 -13 t20 -5q6 0 12 1t12 3q35 8 65.5 35.5t41.5 58.5q0 2 1 3t1 3l116 357h211l-133 -420q-2 -6 -3 -12.5t-1 -10.5q0 -8 5 -13t20 -5h129v0zM860 877l-448 -152l-52 149l449 152l51 -149v0z" />
<glyph unicode="&#xfb;" horiz-adv-x="692" d="M713 207l-68 -203h-29.5h-31.5q-45 0 -87 16.5t-75 45.5q-41 -29 -89 -45.5t-97 -16.5q-10 0 -19.5 1t-19.5 3q-10 0 -19.5 3t-19.5 5q-74 25 -112 84.5t-36 128.5q0 10 1 20.5t3 20.5q0 10 3 20.5t6 20.5l114 357h213l-135 -420q-2 -6 -3 -12.5t-1 -10.5q0 -8 5 -13 t20 -5q6 0 12 1t12 3q35 8 65.5 35.5t41.5 58.5q0 2 1 3t1 3l116 357h211l-133 -420q-2 -6 -3 -12.5t-1 -10.5q0 -8 5 -13t20 -5h129v0zM737 831l-78 -137l-233 131l-236 -131l-77 137l313 175l311 -175v0z" />
<glyph unicode="&#xfc;" horiz-adv-x="692" d="M713 207l-68 -203h-29.5h-31.5q-45 0 -87 16.5t-75 45.5q-41 -29 -89 -45.5t-97 -16.5q-10 0 -19.5 1t-19.5 3q-10 0 -19.5 3t-19.5 5q-74 25 -112 84.5t-36 128.5q0 10 1 20.5t3 20.5q0 10 3 20.5t6 20.5l114 357h213l-135 -420q-2 -6 -3 -12.5t-1 -10.5q0 -8 5 -13 t20 -5q6 0 12 1t12 3q35 8 65.5 35.5t41.5 58.5q0 2 1 3t1 3l116 357h211l-133 -420q-2 -6 -3 -12.5t-1 -10.5q0 -8 5 -13t20 -5h129v0zM436 881l-117 -189l-133 84l117 187l133 -82v0zM721 881l-115 -189l-135 84l115 187l135 -82v0z" />
<glyph unicode="&#xfd;" horiz-adv-x="563" />
<glyph unicode="&#xfe;" horiz-adv-x="950" d="M973 209l-66 -205h-575l65 205h84q14 0 27.5 2t28.5 8q61 20 111 72.5t50 114.5q0 31 -20.5 44t-48.5 13q-45 0 -101.5 -39t-115.5 -107q-59 -70 -114.5 -160.5t-90.5 -195.5l-113 -348h-213l133 412q45 139 90.5 275t90.5 273q18 63 29.5 117.5t13.5 108.5v13v13 q0 47 -6.5 94.5t-16.5 98.5l199 43q12 -53 18 -101.5t8 -95.5v-17v-20q0 -57 -8 -116.5t-24 -124.5q53 35 109 57.5t118 22.5q23 0 45 -3.5t45 -11.5q82 -27 129 -94.5t47 -150.5q0 -53 -16.5 -103.5t-44.5 -93.5h133v0z" />
<glyph unicode="&#xff;" horiz-adv-x="665" d="M756 668q-8 -20 -18.5 -42t-20.5 -42q-20 -47 -48 -106.5t-61 -119.5q-8 -18 -18 -35.5t-21 -33.5q0 -55 -2 -111.5t-8 -114.5q-27 -223 -135.5 -418.5t-347.5 -256.5l-49 194q158 41 230.5 175t94.5 286q-31 -18 -62.5 -27.5t-66.5 -9.5q-100 0 -160.5 66.5t-60.5 156.5 q0 20 4 42t10 42q29 88 58.5 177.5t56.5 177.5h213q-33 -104 -66.5 -209t-68.5 -209q0 -2 -1 -4t-1 -4q0 -4 -1 -8.5t-1 -8.5q0 -8 4 -12t14 -4q25 0 51.5 20.5t55.5 55.5q31 41 60.5 93t55.5 107q25 49 47.5 95.5t38.5 85.5v0v2h224v0zM453 877l-117 -189l-133 84l116 186 l134 -81v0zM737 877l-114 -189l-136 84l115 186l135 -81v0z" />
<glyph unicode="&#x152;" horiz-adv-x="1767" d="M1884 1104q6 -18 9 -35.5t3 -34.5q0 -90 -68.5 -168t-150.5 -141q-43 -33 -85 -61.5t-72 -51.5l-121 160q6 4 50 36t95 73q10 8 19.5 15t17.5 13q45 37 78 71t33 52q0 4 -1 7t-5 5q-16 10 -36 15.5t-42 5.5q-14 0 -29.5 -2t-32.5 -6q-31 -6 -61.5 -16.5t-57.5 -20.5 q-12 -6 -23 -12.5t-22 -10.5q-90 -45 -134 -82.5t-54 -72.5q-4 -8 -5 -16.5t-1 -16.5q0 -55 47 -121.5t104 -165.5q-35 -27 -69.5 -52.5t-69.5 -51.5q-70 -51 -139.5 -103.5t-138.5 -105.5h845l-67 -205h-390.5h-391.5q-51 0 -94.5 14.5t-71.5 36.5q-57 -25 -120 -37 t-126 -12q-109 0 -210 44t-179 138q-57 74 -85 158t-28 170v8v8q4 143 72.5 278.5t175.5 231.5q84 74 187.5 118t209.5 52q10 2 22.5 2h22.5q109 0 210.5 -43t176.5 -139q2 0 2 -1v-3q68 74 164 130t199 83q41 10 81 16.5t79 6.5q53 0 101 -12.5t87 -37.5q33 -20 55.5 -47.5 t34.5 -62.5v0zM924 463q31 53 49 114.5t18 124.5q0 55 -16.5 106.5t-50.5 96.5q-45 57 -104.5 82t-125.5 25h-18t-19 -2q-74 -6 -144.5 -39t-125.5 -80q-68 -59 -118 -149.5t-60 -188.5q0 -8 -1 -18.5t-1 -20.5q2 -51 17.5 -102.5t51.5 -96.5q47 -57 108.5 -82.5 t125.5 -23.5h16.5t18.5 2q41 4 83 16.5t79 30.5q14 31 37.5 59.5t56.5 55.5q31 23 61.5 45t61.5 45v0z" />
<glyph unicode="&#x153;" horiz-adv-x="1110" d="M1130 207l-65 -203h-424q-41 0 -80 14.5t-67 40.5q-41 -27 -88.5 -41t-96.5 -14h-12t-10 2q-6 0 -12.5 1t-12.5 1q-115 16 -185.5 104.5t-70.5 200.5q0 147 109.5 264t261.5 117q72 0 133 -30.5t100 -81.5q27 25 54.5 45t56.5 35q29 12 56.5 21t53.5 13q14 4 27.5 4h26.5 q84 0 148.5 -48t62.5 -132q0 -16 -3 -34.5t-10 -39.5q-16 -49 -67 -109.5t-144 -129.5h258v0zM444 309q-55 12 -94 54.5t-45 99.5q-33 -20 -56.5 -55t-27.5 -74q0 -2 -1 -5t-1 -5v-6.5v-6.5q0 -37 22.5 -65.5t65.5 -28.5t80 26.5t57 65.5v0zM887 500q-74 -2 -129.5 -56.5 t-83.5 -119.5q0 -2 -1 -3.5t-1 -3.5q96 57 146 103.5t69 79.5v0z" />
<glyph unicode="&#x178;" horiz-adv-x="929" d="M1161 1217q-57 -106 -110.5 -215t-104.5 -220q-4 -10 -9 -20t-11 -19l-4 -8l-4 -8q-10 -20 -19.5 -40.5t-17.5 -43.5q-20 -66 -70.5 -241t-118.5 -369q-14 -41 -28.5 -82t-30.5 -80q-45 -113 -92 -214t-97 -175q-10 -16 -22 -32.5t-25 -31.5l-151 131q31 37 63.5 97.5 t67.5 136.5q16 39 32.5 79t32.5 83q14 33 27.5 67.5t24.5 69.5q-51 -37 -108.5 -56.5t-123.5 -19.5q-145 0 -197.5 84t-52.5 203q0 33 3 67.5t10 67.5q8 55 20 108.5t25 102.5q12 39 22 74t19 61q4 8 12 37t18 66q2 6 4 13t5 15q10 39 17 73t7 50v5t-2 3q-8 4 -45 4t-96 -4 l-11 203q90 6 159 1t120 -46q41 -33 56.5 -78t15.5 -98q0 -23 -2 -46.5t-7 -45.5q-6 -33 -15 -67t-17 -64q-6 -20 -12.5 -40t-12.5 -38q-4 -12 -16.5 -55.5t-28.5 -100.5q-6 -23 -11 -47.5t-11 -48.5q-10 -45 -16.5 -88t-6.5 -78q0 -39 10.5 -64.5t36.5 -25.5 q125 0 231.5 149.5t194.5 350.5q10 23 17.5 49t15.5 57q6 23 11 46.5t11 47.5q4 6 6.5 14.5t4.5 16.5q20 70 42.5 138.5t47.5 138.5h317v0zM608 1397l-116 -189l-134 84l117 187l133 -82v0zM893 1397l-115 -189l-135 84l115 187l135 -82v0z" />
<glyph unicode="&#x2c6;" horiz-adv-x="698" d="M664 1124q-37 -63 -98.5 -97t-131.5 -34q-33 0 -64.5 8.5t-60.5 24.5q-12 6 -24.5 9t-24.5 3q-27 0 -51.5 -13t-40.5 -38l-137 78q37 63 98 97t131 34q33 0 64.5 -8t60.5 -25q12 -6 24.5 -9t24.5 -3q29 0 53.5 13.5t38.5 39.5l138 -80v0z" />
<glyph unicode="&#x2dc;" horiz-adv-x="698" d="M668 1135l-78 -138l-234 131l-235 -131l-78 138l313 174l312 -174v0z" />
<glyph unicode="&#x2000;" horiz-adv-x="797" />
<glyph unicode="&#x2001;" horiz-adv-x="1595" />
<glyph unicode="&#x2002;" horiz-adv-x="797" />
<glyph unicode="&#x2003;" horiz-adv-x="1595" />
<glyph unicode="&#x2004;" horiz-adv-x="531" />
<glyph unicode="&#x2005;" horiz-adv-x="398" />
<glyph unicode="&#x2006;" horiz-adv-x="265" />
<glyph unicode="&#x2007;" horiz-adv-x="265" />
<glyph unicode="&#x2008;" horiz-adv-x="199" />
<glyph unicode="&#x2009;" horiz-adv-x="319" />
<glyph unicode="&#x200a;" horiz-adv-x="88" />
<glyph unicode="&#x2010;" horiz-adv-x="454" d="M545 713l-68 -203h-450l65 203h453v0z" />
<glyph unicode="&#x2011;" horiz-adv-x="454" d="M545 713l-68 -203h-450l65 203h453v0z" />
<glyph unicode="&#x2012;" horiz-adv-x="454" d="M545 713l-68 -203h-450l65 203h453v0z" />
<glyph unicode="&#x2013;" horiz-adv-x="976" d="M973 713l-68 -203h-901l66 203h903v0z" />
<glyph unicode="&#x2014;" horiz-adv-x="1482" d="M1497 713l-67 -203h-1455l66 203h1456v0z" />
<glyph unicode="&#x2018;" horiz-adv-x="67" d="M340 1264l-127 -236h-195l129 236h193v0z" />
<glyph unicode="&#x2019;" horiz-adv-x="67" d="M340 1264l-127 -236h-195l129 236h193v0z" />
<glyph unicode="&#x201a;" horiz-adv-x="354" d="M74 178l-127 -235h-195l129 235h193v0z" />
<glyph unicode="&#x201c;" horiz-adv-x="260" d="M350 1264l-127 -236h-194l129 236h192v0zM596 1264l-127 -236h-195l129 236h193v0z" />
<glyph unicode="&#x201d;" horiz-adv-x="284" d="M350 1264l-127 -236h-194l129 236h192v0zM596 1264l-127 -236h-195l129 236h193v0z" />
<glyph unicode="&#x201e;" horiz-adv-x="624" d="M350 178l-127 -235h-194l129 235h192v0zM596 178l-127 -235h-195l129 235h193v0z" />
<glyph unicode="&#x2022;" horiz-adv-x="514" d="M270 762q92 0 159 -66.5t67 -158.5t-67 -158t-159 -66t-158.5 65.5t-66.5 158.5q0 92 66.5 158.5t158.5 66.5v0z" />
<glyph unicode="&#x2026;" />
<glyph unicode="&#x202f;" horiz-adv-x="319" />
<glyph unicode="&#x2039;" horiz-adv-x="468" d="M449 389l-103 -102l-326 323l326 326l103 -105l-222 -221l222 -221v0z" />
<glyph unicode="&#x203a;" horiz-adv-x="468" d="M18 389l222 221l-222 221l103 105l325 -326l-325 -323l-103 102v0z" />
<glyph unicode="&#x205f;" horiz-adv-x="398" />
<glyph unicode="&#x2122;" />
<glyph unicode="&#x25fc;" horiz-adv-x="665" d="M0 666h666v-666h-666v666z" />
</font>
</defs>
</svg>
